<svg version="1.1" viewBox="0.0 0.0 483.5275590551181 153.9028871391076" fill="none" stroke="none" stroke-linecap="square" stroke-miterlimit="10" xmlns:xlink="http://www.w3.org/1999/xlink" xmlns="http://www.w3.org/2000/svg"><clipPath id="p.0"><path d="m0 0l483.52756 0l0 153.9029l-483.52756 0l0 -153.9029z" clip-rule="nonzero"/></clipPath><g clip-path="url(#p.0)"><path fill="#000000" fill-opacity="0.0" d="m0 0l483.52756 0l0 153.9029l-483.52756 0z" fill-rule="evenodd"/><g filter="url(#shadowFilter-p.1)"><use xlink:href="#p.1" transform="matrix(1.0 0.0 0.0 1.0 0.0 2.0)"/></g><defs><filter id="shadowFilter-p.1" filterUnits="userSpaceOnUse"><feGaussianBlur in="SourceAlpha" stdDeviation="2.0" result="blur"/><feComponentTransfer in="blur" color-interpolation-filters="sRGB"><feFuncR type="linear" slope="0" intercept="0.0"/><feFuncG type="linear" slope="0" intercept="0.0"/><feFuncB type="linear" slope="0" intercept="0.0"/><feFuncA type="linear" slope="0.5" intercept="0"/></feComponentTransfer></filter></defs><g id="p.1"><path fill="#000000" fill-opacity="0.0" d="m2.7440944 88.88189l480.03152 0" fill-rule="evenodd"/><path stroke="#000000" stroke-width="1.0" stroke-linejoin="round" stroke-linecap="butt" d="m6.5340943 88.88189l470.24152 0" fill-rule="evenodd"/><path fill="#000000" stroke="#000000" stroke-width="1.0" stroke-linecap="butt" d="m6.5340943 90.526886l-3.29 0l0 -3.2899933l3.29 0l0 3.2899933z" fill-rule="nonzero"/><path fill="#000000" stroke="#000000" stroke-width="1.0" stroke-linecap="butt" d="m476.7756 90.53362l4.538086 -1.6517334l-4.538086 -1.6517334z" fill-rule="evenodd"/></g><path fill="#000000" fill-opacity="0.0" d="m2.7703412 110.05774l240.0 0l0 56.0l-240.0 0z" fill-rule="evenodd"/><path fill="#000000" d="m76.22092 125.38774q1.625 0 2.5625 1.125q0.9375 1.109375 0.9375 2.859375q0 1.765625 -0.9375 2.859375q-0.921875 1.078125 -2.53125 1.078125q-0.703125 0 -1.390625 -0.28125q-0.671875 -0.296875 -1.0625 -0.90625l-0.03125 0l0 3.921875l-1.234375 0l0 -10.484375l1.234375 0l0 1.03125l0.03125 0q0.296875 -0.59375 0.921875 -0.890625q0.640625 -0.3125 1.5 -0.3125zm-2.484375 3.953125q0 1.328125 0.625 2.109375q0.640625 0.765625 1.765625 0.765625q1.078125 0 1.671875 -0.765625q0.59375 -0.78125 0.59375 -2.15625q0 -1.234375 -0.625 -2.015625q-0.625 -0.796875 -1.734375 -0.796875q-1.09375 0 -1.703125 0.8125q-0.59375 0.796875 -0.59375 2.046875zm8.750336 -6.671875l0 10.46875l-1.234375 0l0 -10.46875l1.234375 0zm5.0373993 2.71875q1.546875 0 2.1875 0.5625q0.65625 0.546875 0.65625 1.46875q0 3.9375 0 4.375q0 0.421875 0.390625 0.421875q0.09375 0 0.1875 -0.015625q0.109375 -0.03125 0.203125 -0.0625l0 0.96875q-0.171875 0.109375 -0.40625 0.15625q-0.21875 0.046875 -0.484375 0.046875q-0.515625 0 -0.796875 -0.28125q-0.265625 -0.296875 -0.265625 -0.890625q-0.5 0.59375 -1.171875 0.890625q-0.671875 0.28125 -1.5 0.28125q-1.171875 0 -1.84375 -0.546875q-0.65625 -0.5625 -0.65625 -1.578125q0 -1.015625 0.640625 -1.609375q0.65625 -0.609375 3.078125 -0.90625q0.8125 -0.109375 1.09375 -0.3125q0.296875 -0.203125 0.296875 -0.625q0 -0.625 -0.40625 -0.9375q-0.40625 -0.3125 -1.28125 -0.3125q-0.921875 0 -1.390625 0.359375q-0.453125 0.34375 -0.5 1.078125l-1.234375 0q0.046875 -1.25 0.875 -1.890625q0.84375 -0.640625 2.328125 -0.640625zm-2.1875 5.703125q0 0.53125 0.390625 0.828125q0.390625 0.296875 1.078125 0.296875q1.046875 0 1.671875 -0.515625q0.640625 -0.53125 0.640625 -1.171875l0 -1.3125q-0.3125 0.234375 -0.8125 0.3125q-0.5 0.078125 -1.328125 0.1875q-0.84375 0.125 -1.25 0.453125q-0.390625 0.328125 -0.390625 0.921875zm7.5595093 -5.53125l2.203125 6.203125l0.03125 0l2.125 -6.203125l1.328125 0l-3.21875 8.390625q-0.515625 1.3125 -0.984375 1.765625q-0.46875 0.453125 -1.296875 0.453125q-0.234375 0 -0.453125 -0.03125q-0.203125 -0.015625 -0.40625 -0.09375l0 -1.140625q0.171875 0.046875 0.34375 0.109375q0.1875 0.0625 0.375 0.0625q0.765625 0 1.0625 -0.765625q0.296875 -0.75 0.484375 -1.21875l-3.015625 -7.53125l1.421875 0zm12.446976 -2.15625q-0.40625 0 -0.625 0.390625q-0.21875 0.375 -0.21875 1.03125l0.859375 0l0 1.625l-1.625 0l0 -1.546875q0 -1.03125 0.421875 -1.625q0.421875 -0.609375 1.1875 -0.609375l0 0.734375zm2.6875 0q-0.40625 0 -0.625 0.375q-0.21875 0.359375 -0.234375 1.046875l0.875 0l0 1.625l-1.625 0l0 -1.609375q0 -0.96875 0.421875 -1.5625q0.421875 -0.609375 1.1875 -0.609375l0 0.734375zm8.990356 -0.734375l0 1.1875l-5.484375 0l0 3.3125l4.8125 0l0 1.171875l-4.8125 0l0 4.796875l-1.390625 0l0 -10.46875l6.875 0zm4.4015656 2.71875q0.046875 0 0.078125 0q0.046875 0 0.09375 0l0 1.3125q-1.390625 0 -2.0625 0.75q-0.671875 0.75 -0.671875 2.296875l0 3.390625l-1.25 0l0 -7.578125l1.171875 0l0 1.59375l0.03125 0q0.4375 -0.90625 1.078125 -1.328125q0.640625 -0.4375 1.53125 -0.4375zm4.006302 0q1.625 0 2.515625 1.171875q0.90625 1.171875 0.90625 3.015625l0 0.15625l-5.671875 0l0 0.078125q0 1.09375 0.625 1.75q0.640625 0.65625 1.734375 0.65625q0.828125 0 1.3125 -0.390625q0.5 -0.390625 0.65625 -1.09375l1.234375 0q-0.25 1.265625 -1.109375 1.921875q-0.84375 0.65625 -2.125 0.65625q-1.203125 0 -2.03125 -0.53125q-0.828125 -0.546875 -1.21875 -1.5q-0.390625 -0.96875 -0.390625 -1.96875q0 -1.6875 1.0 -2.796875q1.015625 -1.125 2.5625 -1.125zm-2.25 3.234375l4.359375 0q-0.0625 -0.921875 -0.671875 -1.53125q-0.609375 -0.609375 -1.53125 -0.609375q-0.859375 0 -1.46875 0.578125q-0.609375 0.578125 -0.6875 1.5625zm10.122009 -3.234375q1.625 0 2.515625 1.171875q0.90625 1.171875 0.90625 3.015625l0 0.15625l-5.671875 0l0 0.078125q0 1.09375 0.625 1.75q0.640625 0.65625 1.734375 0.65625q0.828125 0 1.3125 -0.390625q0.5 -0.390625 0.65625 -1.09375l1.234375 0q-0.25 1.265625 -1.109375 1.921875q-0.84375 0.65625 -2.125 0.65625q-1.203125 0 -2.03125 -0.53125q-0.828125 -0.546875 -1.21875 -1.5q-0.390625 -0.96875 -0.390625 -1.96875q0 -1.6875 1.0 -2.796875q1.015625 -1.125 2.5625 -1.125zm-2.25 3.234375l4.359375 0q-0.0625 -0.921875 -0.671875 -1.53125q-0.609375 -0.609375 -1.53125 -0.609375q-0.859375 0 -1.46875 0.578125q-0.609375 0.578125 -0.6875 1.5625zm15.70961 -5.953125q1.9375 0 2.625 0.796875q0.703125 0.78125 0.703125 1.765625q0 0.828125 -0.40625 1.4375q-0.40625 0.609375 -1.140625 0.921875l0 0.015625q0.953125 0.21875 1.46875 0.890625q0.515625 0.671875 0.515625 1.640625q0 1.28125 -0.890625 2.140625q-0.890625 0.859375 -2.234375 0.859375l-5.109375 0l0 -10.46875l4.46875 0zm-0.21875 4.5q1.046875 0 1.59375 -0.390625q0.5625 -0.390625 0.5625 -1.28125q0 -0.828125 -0.46875 -1.234375q-0.453125 -0.40625 -1.671875 -0.40625l-2.875 0l0 3.3125l2.859375 0zm0.6875 4.796875q0.84375 0 1.375 -0.5q0.53125 -0.515625 0.53125 -1.375q0 -0.875 -0.609375 -1.3125q-0.59375 -0.4375 -1.71875 -0.4375l-3.125 0l0 3.625l3.546875 0zm6.212265 -9.296875l0 1.53125l-1.234375 0l0 -1.53125l1.234375 0zm0 2.890625l0 7.578125l-1.234375 0l0 -7.578125l1.234375 0zm5.7092743 -0.171875q0.046875 0 0.078125 0q0.046875 0 0.09375 0l0 1.3125q-1.390625 0 -2.0625 0.75q-0.671875 0.75 -0.671875 2.296875l0 3.390625l-1.25 0l0 -7.578125l1.171875 0l0 1.59375l0.03125 0q0.4375 -0.90625 1.078125 -1.328125q0.640625 -0.4375 1.53125 -0.4375zm7.615677 -2.71875l0 10.46875l-1.234375 0l0 -1.015625l-0.03125 0q-0.296875 0.578125 -0.9375 0.890625q-0.640625 0.296875 -1.484375 0.296875q-1.59375 0 -2.546875 -1.09375q-0.9375 -1.109375 -0.9375 -2.890625q0 -1.75 0.921875 -2.84375q0.921875 -1.09375 2.53125 -1.09375q0.734375 0 1.40625 0.296875q0.671875 0.296875 1.046875 0.890625l0.03125 0l0 -3.90625l1.234375 0zm-5.859375 6.734375q0 1.234375 0.625 2.03125q0.640625 0.78125 1.71875 0.78125q1.109375 0 1.703125 -0.78125q0.609375 -0.796875 0.609375 -2.078125q0 -1.296875 -0.625 -2.078125q-0.609375 -0.796875 -1.78125 -0.796875q-1.0625 0 -1.65625 0.78125q-0.59375 0.78125 -0.59375 2.140625zm9.437836 -6.734375l0 1.6875q0 0.921875 -0.421875 1.515625q-0.421875 0.578125 -1.1875 0.578125l0 -0.71875q0.40625 0 0.625 -0.375q0.21875 -0.375 0.21875 -1.0625l-0.859375 0l0 -1.625l1.625 0zm2.6875 0l0 1.6875q0 0.890625 -0.421875 1.5q-0.40625 0.59375 -1.1875 0.59375l0 -0.71875q0.40625 0 0.625 -0.375q0.21875 -0.375 0.21875 -1.0625l-0.859375 0l0 -1.625l1.625 0z" fill-rule="nonzero"/><path fill="#000000" fill-opacity="0.0" d="m155.644 3.7060368l174.23622 0l0 56.0l-174.23622 0z" fill-rule="evenodd"/><path fill="#000000" d="m207.56253 16.567287l0 1.09375l-4.1875 0l-0.5625 3.0l0.03125 0.03125q0.328125 -0.359375 0.828125 -0.546875q0.5 -0.203125 1.109375 -0.203125q1.515625 0 2.421875 0.953125q0.921875 0.9375 0.921875 2.59375q0 1.5 -1.0 2.484375q-1.0 0.984375 -2.625 0.984375q-1.390625 0 -2.328125 -0.796875q-0.9375 -0.796875 -0.984375 -2.15625l0 -0.015625l1.25 0q0.046875 0.828125 0.65625 1.359375q0.625 0.515625 1.515625 0.515625q0.96875 0 1.578125 -0.65625q0.625 -0.65625 0.625 -1.8125q0 -1.046875 -0.6875 -1.703125q-0.671875 -0.65625 -1.65625 -0.65625q-0.5625 0 -1.046875 0.25q-0.46875 0.25 -0.890625 0.734375l-1.0625 -0.0625l0.96875 -5.390625l5.125 0zm7.401108 -0.171875l0 6.859375l1.40625 0l0 1.09375l-1.40625 0l0 2.4375l-1.171875 0l0 -2.4375l-4.5625 0l0 -1.203125l4.734375 -6.75l1.0 0zm-1.203125 1.78125l-3.453125 5.078125l3.484375 0l0 -5.078125l-0.03125 0zm7.135483 -1.78125q1.796875 0 2.671875 1.234375q0.875 1.234375 0.875 3.734375q0 2.875 -0.90625 4.234375q-0.890625 1.359375 -2.6875 1.359375q-1.34375 0 -2.1875 -0.671875q-0.828125 -0.6875 -0.96875 -2.0l1.234375 0q0.109375 0.75 0.625 1.171875q0.53125 0.40625 1.296875 0.40625q1.140625 0 1.703125 -0.984375q0.578125 -0.984375 0.640625 -3.03125l-0.03125 -0.03125q-0.375 0.671875 -1.015625 1.0625q-0.625 0.375 -1.40625 0.375q-1.515625 0 -2.390625 -0.9375q-0.875 -0.9375 -0.875 -2.53125q0 -1.484375 0.953125 -2.4375q0.96875 -0.953125 2.46875 -0.953125zm-2.109375 3.5625q0 0.890625 0.59375 1.546875q0.609375 0.65625 1.46875 0.65625q0.921875 0 1.515625 -0.65625q0.609375 -0.671875 0.609375 -1.640625q0 -1.0 -0.578125 -1.671875q-0.578125 -0.6875 -1.578125 -0.6875q-0.953125 0 -1.5 0.65625q-0.53125 0.65625 -0.53125 1.796875zm13.8637085 -0.921875q1.53125 0 2.265625 0.59375q0.75 0.59375 0.828125 1.78125l-1.25 0l0 -0.015625q-0.046875 -0.609375 -0.53125 -0.9375q-0.46875 -0.328125 -1.21875 -0.328125q-0.75 0 -1.1875 0.265625q-0.421875 0.25 -0.421875 0.703125q0 0.40625 0.375 0.671875q0.390625 0.265625 1.15625 0.4375l1.171875 0.265625q1.109375 0.234375 1.671875 0.75q0.578125 0.5 0.578125 1.34375q0 1.125 -0.875 1.765625q-0.859375 0.625 -2.34375 0.625q-1.453125 0 -2.3125 -0.640625q-0.84375 -0.65625 -0.90625 -1.921875l1.25 0q0.015625 0.703125 0.546875 1.09375q0.546875 0.375 1.484375 0.375q0.90625 0 1.359375 -0.28125q0.46875 -0.296875 0.46875 -0.84375q0 -0.515625 -0.46875 -0.8125q-0.453125 -0.296875 -1.875 -0.578125q-1.4375 -0.28125 -2.03125 -0.796875q-0.578125 -0.515625 -0.578125 -1.359375q0 -1.0 0.8125 -1.578125q0.8125 -0.578125 2.03125 -0.578125zm7.96875 0q1.625 0 2.515625 1.171875q0.90625 1.171875 0.90625 3.015625l0 0.15625l-5.671875 0l0 0.078125q0 1.09375 0.625 1.75q0.640625 0.65625 1.734375 0.65625q0.828125 0 1.3125 -0.390625q0.5 -0.390625 0.65625 -1.09375l1.234375 0q-0.25 1.265625 -1.109375 1.921875q-0.84375 0.65625 -2.125 0.65625q-1.203125 0 -2.03125 -0.53125q-0.828125 -0.546875 -1.21875 -1.5q-0.390625 -0.96875 -0.390625 -1.96875q0 -1.6875 1.0 -2.796875q1.015625 -1.125 2.5625 -1.125zm-2.25 3.234375l4.359375 0q-0.0625 -0.921875 -0.671875 -1.53125q-0.609375 -0.609375 -1.53125 -0.609375q-0.859375 0 -1.46875 0.578125q-0.609375 0.578125 -0.6875 1.5625zm10.122009 -3.234375q1.390625 0 2.25 0.65625q0.875 0.65625 1.03125 1.953125l-1.296875 0q-0.140625 -0.734375 -0.640625 -1.125q-0.484375 -0.390625 -1.234375 -0.390625q-1.15625 0 -1.765625 0.78125q-0.59375 0.765625 -0.59375 2.1875q0 1.25 0.59375 2.015625q0.59375 0.75 1.625 0.75q0.90625 0 1.421875 -0.484375q0.53125 -0.5 0.65625 -1.359375l1.265625 0q-0.203125 1.40625 -1.0625 2.171875q-0.859375 0.765625 -2.265625 0.765625q-1.65625 0 -2.609375 -1.03125q-0.9375 -1.046875 -0.9375 -2.828125q0 -1.859375 0.953125 -2.953125q0.953125 -1.109375 2.609375 -1.109375zm7.9813843 0q1.71875 0 2.703125 1.109375q0.984375 1.109375 0.984375 2.859375q0 1.765625 -1.015625 2.859375q-1.0 1.09375 -2.671875 1.09375q-1.640625 0 -2.65625 -1.0625q-1.015625 -1.078125 -1.015625 -2.890625q0 -1.796875 0.984375 -2.875q1.0 -1.09375 2.6875 -1.09375zm-2.359375 3.96875q0 1.3125 0.65625 2.09375q0.671875 0.765625 1.703125 0.765625q1.03125 0 1.6875 -0.78125q0.671875 -0.78125 0.671875 -2.078125q0 -1.296875 -0.671875 -2.078125q-0.65625 -0.796875 -1.703125 -0.796875q-1.0 0 -1.671875 0.78125q-0.671875 0.765625 -0.671875 2.09375zm11.181519 -3.96875q1.359375 0 1.984375 0.703125q0.625 0.703125 0.625 2.0l0 5.046875l-1.25 0l0 -5.171875q0 -0.640625 -0.421875 -1.0625q-0.40625 -0.421875 -1.125 -0.421875q-1.0625 0 -1.65625 0.65625q-0.578125 0.640625 -0.578125 1.671875l0 4.328125l-1.25 0l0 -7.578125l1.171875 0l0 1.203125l0.03125 0q0.421875 -0.703125 1.015625 -1.03125q0.609375 -0.34375 1.453125 -0.34375zm11.244873 -2.71875l0 10.46875l-1.234375 0l0 -1.015625l-0.03125 0q-0.296875 0.578125 -0.9375 0.890625q-0.640625 0.296875 -1.484375 0.296875q-1.59375 0 -2.546875 -1.09375q-0.9375 -1.109375 -0.9375 -2.890625q0 -1.75 0.921875 -2.84375q0.921875 -1.09375 2.53125 -1.09375q0.734375 0 1.40625 0.296875q0.671875 0.296875 1.046875 0.890625l0.03125 0l0 -3.90625l1.234375 0zm-5.859375 6.734375q0 1.234375 0.625 2.03125q0.640625 0.78125 1.71875 0.78125q1.109375 0 1.703125 -0.78125q0.609375 -0.796875 0.609375 -2.078125q0 -1.296875 -0.625 -2.078125q-0.609375 -0.796875 -1.78125 -0.796875q-1.0625 0 -1.65625 0.78125q-0.59375 0.78125 -0.59375 2.140625zm10.297211 -4.015625q1.53125 0 2.265625 0.59375q0.75 0.59375 0.828125 1.78125l-1.25 0l0 -0.015625q-0.046875 -0.609375 -0.53125 -0.9375q-0.46875 -0.328125 -1.21875 -0.328125q-0.75 0 -1.1875 0.265625q-0.421875 0.25 -0.421875 0.703125q0 0.40625 0.375 0.671875q0.390625 0.265625 1.15625 0.4375l1.171875 0.265625q1.109375 0.234375 1.671875 0.75q0.578125 0.5 0.578125 1.34375q0 1.125 -0.875 1.765625q-0.859375 0.625 -2.34375 0.625q-1.453125 0 -2.3125 -0.640625q-0.84375 -0.65625 -0.90625 -1.921875l1.25 0q0.015625 0.703125 0.546875 1.09375q0.546875 0.375 1.484375 0.375q0.90625 0 1.359375 -0.28125q0.46875 -0.296875 0.46875 -0.84375q0 -0.515625 -0.46875 -0.8125q-0.453125 -0.296875 -1.875 -0.578125q-1.4375 -0.28125 -2.03125 -0.796875q-0.578125 -0.515625 -0.578125 -1.359375q0 -1.0 0.8125 -1.578125q0.8125 -0.578125 2.03125 -0.578125z" fill-rule="nonzero"/><path fill="#000000" fill-opacity="0.0" d="m242.77034 110.05774l240.00002 0l0 56.0l-240.00002 0z" fill-rule="evenodd"/><path fill="#000000" d="m311.6797 123.403366q-0.40625 0 -0.625 0.390625q-0.21875 0.375 -0.21875 1.03125l0.859375 0l0 1.625l-1.625 0l0 -1.546875q0 -1.03125 0.421875 -1.625q0.421875 -0.609375 1.1875 -0.609375l0 0.734375zm2.6875 0q-0.40625 0 -0.625 0.375q-0.21875 0.359375 -0.234375 1.046875l0.875 0l0 1.625l-1.625 0l0 -1.609375q0 -0.96875 0.421875 -1.5625q0.421875 -0.609375 1.1875 -0.609375l0 0.734375zm8.990356 -0.734375l0 1.1875l-5.484375 0l0 3.3125l4.8125 0l0 1.171875l-4.8125 0l0 4.796875l-1.390625 0l0 -10.46875l6.875 0zm4.401581 2.71875q0.046875 0 0.078125 0q0.046875 0 0.09375 0l0 1.3125q-1.390625 0 -2.0625 0.75q-0.671875 0.75 -0.671875 2.296875l0 3.390625l-1.25 0l0 -7.578125l1.171875 0l0 1.59375l0.03125 0q0.4375 -0.90625 1.078125 -1.328125q0.640625 -0.4375 1.53125 -0.4375zm4.0062866 0q1.625 0 2.515625 1.171875q0.90625 1.171875 0.90625 3.015625l0 0.15625l-5.671875 0l0 0.078125q0 1.09375 0.625 1.75q0.640625 0.65625 1.734375 0.65625q0.828125 0 1.3125 -0.390625q0.5 -0.390625 0.65625 -1.09375l1.234375 0q-0.25 1.265625 -1.109375 1.921875q-0.84375 0.65625 -2.125 0.65625q-1.203125 0 -2.03125 -0.53125q-0.828125 -0.546875 -1.21875 -1.5q-0.390625 -0.96875 -0.390625 -1.96875q0 -1.6875 1.0 -2.796875q1.015625 -1.125 2.5625 -1.125zm-2.25 3.234375l4.359375 0q-0.0625 -0.921875 -0.671875 -1.53125q-0.609375 -0.609375 -1.53125 -0.609375q-0.859375 0 -1.46875 0.578125q-0.609375 0.578125 -0.6875 1.5625zm10.122009 -3.234375q1.625 0 2.515625 1.171875q0.90625 1.171875 0.90625 3.015625l0 0.15625l-5.671875 0l0 0.078125q0 1.09375 0.625 1.75q0.640625 0.65625 1.734375 0.65625q0.828125 0 1.3125 -0.390625q0.5 -0.390625 0.65625 -1.09375l1.234375 0q-0.25 1.265625 -1.109375 1.921875q-0.84375 0.65625 -2.125 0.65625q-1.203125 0 -2.03125 -0.53125q-0.828125 -0.546875 -1.21875 -1.5q-0.390625 -0.96875 -0.390625 -1.96875q0 -1.6875 1.0 -2.796875q1.015625 -1.125 2.5625 -1.125zm-2.25 3.234375l4.359375 0q-0.0625 -0.921875 -0.671875 -1.53125q-0.609375 -0.609375 -1.53125 -0.609375q-0.859375 0 -1.46875 0.578125q-0.609375 0.578125 -0.6875 1.5625zm15.709625 -5.953125q1.9375 0 2.625 0.796875q0.703125 0.78125 0.703125 1.765625q0 0.828125 -0.40625 1.4375q-0.40625 0.609375 -1.140625 0.921875l0 0.015625q0.953125 0.21875 1.46875 0.890625q0.515625 0.671875 0.515625 1.640625q0 1.28125 -0.890625 2.140625q-0.890625 0.859375 -2.234375 0.859375l-5.109375 0l0 -10.46875l4.46875 0zm-0.21875 4.5q1.046875 0 1.59375 -0.390625q0.5625 -0.390625 0.5625 -1.28125q0 -0.828125 -0.46875 -1.234375q-0.453125 -0.40625 -1.671875 -0.40625l-2.875 0l0 3.3125l2.859375 0zm0.6875 4.796875q0.84375 0 1.375 -0.5q0.53125 -0.515625 0.53125 -1.375q0 -0.875 -0.609375 -1.3125q-0.59375 -0.4375 -1.71875 -0.4375l-3.125 0l0 3.625l3.546875 0zm6.2122498 -9.296875l0 1.53125l-1.234375 0l0 -1.53125l1.234375 0zm0 2.890625l0 7.578125l-1.234375 0l0 -7.578125l1.234375 0zm5.7092896 -0.171875q0.046875 0 0.078125 0q0.046875 0 0.09375 0l0 1.3125q-1.390625 0 -2.0625 0.75q-0.671875 0.75 -0.671875 2.296875l0 3.390625l-1.25 0l0 -7.578125l1.171875 0l0 1.59375l0.03125 0q0.4375 -0.90625 1.078125 -1.328125q0.640625 -0.4375 1.53125 -0.4375zm7.6156616 -2.71875l0 10.46875l-1.234375 0l0 -1.015625l-0.03125 0q-0.296875 0.578125 -0.9375 0.890625q-0.640625 0.296875 -1.484375 0.296875q-1.59375 0 -2.546875 -1.09375q-0.9375 -1.109375 -0.9375 -2.890625q0 -1.75 0.921875 -2.84375q0.921875 -1.09375 2.53125 -1.09375q0.734375 0 1.40625 0.296875q0.671875 0.296875 1.046875 0.890625l0.03125 0l0 -3.90625l1.234375 0zm-5.859375 6.734375q0 1.234375 0.625 2.03125q0.640625 0.78125 1.71875 0.78125q1.109375 0 1.703125 -0.78125q0.609375 -0.796875 0.609375 -2.078125q0 -1.296875 -0.625 -2.078125q-0.609375 -0.796875 -1.78125 -0.796875q-1.0625 0 -1.65625 0.78125q-0.59375 0.78125 -0.59375 2.140625zm9.437836 -6.734375l0 1.6875q0 0.921875 -0.421875 1.515625q-0.421875 0.578125 -1.1875 0.578125l0 -0.71875q0.40625 0 0.625 -0.375q0.21875 -0.375 0.21875 -1.0625l-0.859375 0l0 -1.625l1.625 0zm2.6875 0l0 1.6875q0 0.890625 -0.421875 1.5q-0.40625 0.59375 -1.1875 0.59375l0 -0.71875q0.40625 0 0.625 -0.375q0.21875 -0.375 0.21875 -1.0625l-0.859375 0l0 -1.625l1.625 0zm9.124847 2.71875q1.625 0 2.515625 1.171875q0.90625 1.171875 0.90625 3.015625l0 0.15625l-5.671875 0l0 0.078125q0 1.09375 0.625 1.75q0.640625 0.65625 1.734375 0.65625q0.828125 0 1.3125 -0.390625q0.5 -0.390625 0.65625 -1.09375l1.234375 0q-0.25 1.265625 -1.109375 1.921875q-0.84375 0.65625 -2.125 0.65625q-1.203125 0 -2.03125 -0.53125q-0.828125 -0.546875 -1.21875 -1.5q-0.390625 -0.96875 -0.390625 -1.96875q0 -1.6875 1.0 -2.796875q1.015625 -1.125 2.5625 -1.125zm-2.25 3.234375l4.359375 0q-0.0625 -0.921875 -0.671875 -1.53125q-0.609375 -0.609375 -1.53125 -0.609375q-0.859375 0 -1.46875 0.578125q-0.609375 0.578125 -0.6875 1.5625zm10.637634 -3.234375q1.359375 0 1.984375 0.703125q0.625 0.703125 0.625 2.0l0 5.046875l-1.25 0l0 -5.171875q0 -0.640625 -0.421875 -1.0625q-0.40625 -0.421875 -1.125 -0.421875q-1.0625 0 -1.65625 0.65625q-0.578125 0.640625 -0.578125 1.671875l0 4.328125l-1.25 0l0 -7.578125l1.171875 0l0 1.203125l0.03125 0q0.421875 -0.703125 1.015625 -1.03125q0.609375 -0.34375 1.453125 -0.34375zm11.244843 -2.71875l0 10.46875l-1.234375 0l0 -1.015625l-0.03125 0q-0.296875 0.578125 -0.9375 0.890625q-0.640625 0.296875 -1.484375 0.296875q-1.59375 0 -2.546875 -1.09375q-0.9375 -1.109375 -0.9375 -2.890625q0 -1.75 0.921875 -2.84375q0.921875 -1.09375 2.53125 -1.09375q0.734375 0 1.40625 0.296875q0.671875 0.296875 1.046875 0.890625l0.03125 0l0 -3.90625l1.234375 0zm-5.859375 6.734375q0 1.234375 0.625 2.03125q0.640625 0.78125 1.71875 0.78125q1.109375 0 1.703125 -0.78125q0.609375 -0.796875 0.609375 -2.078125q0 -1.296875 -0.625 -2.078125q-0.609375 -0.796875 -1.78125 -0.796875q-1.0625 0 -1.65625 0.78125q-0.59375 0.78125 -0.59375 2.140625zm10.297211 -4.015625q1.53125 0 2.265625 0.59375q0.75 0.59375 0.828125 1.78125l-1.25 0l0 -0.015625q-0.046875 -0.609375 -0.53125 -0.9375q-0.46875 -0.328125 -1.21875 -0.328125q-0.75 0 -1.1875 0.265625q-0.421875 0.25 -0.421875 0.703125q0 0.40625 0.375 0.671875q0.390625 0.265625 1.15625 0.4375l1.171875 0.265625q1.109375 0.234375 1.671875 0.75q0.578125 0.5 0.578125 1.34375q0 1.125 -0.875 1.765625q-0.859375 0.625 -2.34375 0.625q-1.453125 0 -2.3125 -0.640625q-0.84375 -0.65625 -0.90625 -1.921875l1.25 0q0.015625 0.703125 0.546875 1.09375q0.546875 0.375 1.484375 0.375q0.90625 0 1.359375 -0.28125q0.46875 -0.296875 0.46875 -0.84375q0 -0.515625 -0.46875 -0.8125q-0.453125 -0.296875 -1.875 -0.578125q-1.4375 -0.28125 -2.03125 -0.796875q-0.578125 -0.515625 -0.578125 -1.359375q0 -1.0 0.8125 -1.578125q0.8125 -0.578125 2.03125 -0.578125z" fill-rule="nonzero"/><g filter="url(#shadowFilter-p.2)"><use xlink:href="#p.2" transform="matrix(1.0 0.0 0.0 1.0 0.0 2.0)"/></g><defs><filter id="shadowFilter-p.2" filterUnits="userSpaceOnUse"><feGaussianBlur in="SourceAlpha" stdDeviation="2.0" result="blur"/><feComponentTransfer in="blur" color-interpolation-filters="sRGB"><feFuncR type="linear" slope="0" intercept="0.0"/><feFuncG type="linear" slope="0" intercept="0.0"/><feFuncB type="linear" slope="0" intercept="0.0"/><feFuncA type="linear" slope="0.5" intercept="0"/></feComponentTransfer></filter></defs><g id="p.2"><path fill="#000000" fill-opacity="0.0" d="m362.77167 66.850395l0 44.06299" fill-rule="evenodd"/><path stroke="#cc0000" stroke-width="2.0" stroke-linejoin="round" stroke-linecap="butt" d="m362.77167 66.850395l0 44.06299" fill-rule="evenodd"/></g><g filter="url(#shadowFilter-p.3)"><use xlink:href="#p.3" transform="matrix(1.0 0.0 0.0 1.0 0.0 2.0)"/></g><defs><filter id="shadowFilter-p.3" filterUnits="userSpaceOnUse"><feGaussianBlur in="SourceAlpha" stdDeviation="2.0" result="blur"/><feComponentTransfer in="blur" color-interpolation-filters="sRGB"><feFuncR type="linear" slope="0" intercept="0.0"/><feFuncG type="linear" slope="0" intercept="0.0"/><feFuncB type="linear" slope="0" intercept="0.0"/><feFuncA type="linear" slope="0.5" intercept="0"/></feComponentTransfer></filter></defs><g id="p.3"><path fill="#000000" fill-opacity="0.0" d="m118.79265 66.850395l0 44.06299" fill-rule="evenodd"/><path stroke="#cc0000" stroke-width="2.0" stroke-linejoin="round" stroke-linecap="butt" d="m118.79265 66.850395l0 44.06299" fill-rule="evenodd"/></g><g filter="url(#shadowFilter-p.4)"><use xlink:href="#p.4" transform="matrix(1.0 0.0 0.0 1.0 0.0 2.0)"/></g><defs><filter id="shadowFilter-p.4" filterUnits="userSpaceOnUse"><feGaussianBlur in="SourceAlpha" stdDeviation="2.0" result="blur"/><feComponentTransfer in="blur" color-interpolation-filters="sRGB"><feFuncR type="linear" slope="0" intercept="0.0"/><feFuncG type="linear" slope="0" intercept="0.0"/><feFuncB type="linear" slope="0" intercept="0.0"/><feFuncA type="linear" slope="0.5" intercept="0"/></feComponentTransfer></filter></defs><g id="p.4"><path fill="#000000" fill-opacity="0.0" d="m118.997375 40.53281l243.3386 0" fill-rule="evenodd"/><path stroke="#000000" stroke-width="1.0" stroke-linejoin="round" stroke-linecap="butt" d="m118.997375 40.53281l243.3386 0" fill-rule="evenodd"/></g></g></svg>