<svg version="1.1" viewBox="0.0 0.0 484.37270341207346 100.0" fill="none" stroke="none" stroke-linecap="square" stroke-miterlimit="10" xmlns:xlink="http://www.w3.org/1999/xlink" xmlns="http://www.w3.org/2000/svg"><clipPath id="p.0"><path d="m0 0l484.3727 0l0 100.0l-484.3727 0l0 -100.0z" clip-rule="nonzero"/></clipPath><g clip-path="url(#p.0)"><path fill="#000000" fill-opacity="0.0" d="m0 0l484.3727 0l0 100.0l-484.3727 0z" fill-rule="evenodd"/><g filter="url(#shadowFilter-p.1)"><use xlink:href="#p.1" transform="matrix(1.0 0.0 0.0 1.0 0.0 2.0)"/></g><defs><filter id="shadowFilter-p.1" filterUnits="userSpaceOnUse"><feGaussianBlur in="SourceAlpha" stdDeviation="2.0" result="blur"/><feComponentTransfer in="blur" color-interpolation-filters="sRGB"><feFuncR type="linear" slope="0" intercept="0.0"/><feFuncG type="linear" slope="0" intercept="0.0"/><feFuncB type="linear" slope="0" intercept="0.0"/><feFuncA type="linear" slope="0.5" intercept="0"/></feComponentTransfer></filter></defs><g id="p.1"><path fill="#000000" fill-opacity="0.0" d="m2.7440944 28.220472l480.03152 0" fill-rule="evenodd"/><path stroke="#000000" stroke-width="1.0" stroke-linejoin="round" stroke-linecap="butt" d="m6.5340943 28.220472l470.24152 0" fill-rule="evenodd"/><path fill="#000000" stroke="#000000" stroke-width="1.0" stroke-linecap="butt" d="m6.5340943 29.865473l-3.29 0l0 -3.290001l3.29 0l0 3.290001z" fill-rule="nonzero"/><path fill="#000000" stroke="#000000" stroke-width="1.0" stroke-linecap="butt" d="m476.7756 29.872206l4.538086 -1.6517334l-4.538086 -1.6517315z" fill-rule="evenodd"/></g><path fill="#000000" fill-opacity="0.0" d="m2.7703412 49.396324l240.0 0l0 56.0l-240.0 0z" fill-rule="evenodd"/><path fill="#000000" d="m98.83482 62.632576l0 2.265625l1.5 0l0 1.109375l-1.5 0l0 4.734375q0 0.5625 0.375 0.59375q0.375 0.03125 0.78125 0.03125l0.34375 0l0 1.109375l-1.015625 0q-1.03125 0 -1.390625 -0.359375q-0.34375 -0.375 -0.34375 -1.234375l0 -4.875l-1.296875 0l0 -1.109375l1.296875 0l0 -2.265625l1.25 0zm4.131485 -0.625l0 4.0l0.03125 0q0.265625 -0.609375 0.90625 -0.9375q0.65625 -0.34375 1.484375 -0.34375q1.359375 0 1.984375 0.703125q0.625 0.703125 0.625 2.0l0 5.046875l-1.25 0l0 -5.171875q0 -0.640625 -0.421875 -1.0625q-0.40625 -0.421875 -1.125 -0.421875q-1.0625 0 -1.65625 0.65625q-0.578125 0.640625 -0.578125 1.671875l0 4.328125l-1.25 0l0 -10.46875l1.25 0zm10.057358 2.71875q1.625 0 2.515625 1.171875q0.90625 1.171875 0.90625 3.015625l0 0.15625l-5.671875 0l0 0.078125q0 1.09375 0.625 1.75q0.640625 0.65625 1.734375 0.65625q0.828125 0 1.3125 -0.390625q0.5 -0.390625 0.65625 -1.09375l1.234375 0q-0.25 1.265625 -1.109375 1.921875q-0.84375 0.65625 -2.125 0.65625q-1.203125 0 -2.03125 -0.53125q-0.828125 -0.546875 -1.21875 -1.5q-0.390625 -0.96875 -0.390625 -1.96875q0 -1.6875 1.0 -2.796875q1.015625 -1.125 2.5625 -1.125zm-2.25 3.234375l4.359375 0q-0.0625 -0.921875 -0.671875 -1.53125q-0.609375 -0.609375 -1.53125 -0.609375q-0.859375 0 -1.46875 0.578125q-0.609375 0.578125 -0.6875 1.5625zm14.77211 -3.234375q1.625 0 2.5625 1.125q0.9375 1.109375 0.9375 2.859375q0 1.765625 -0.9375 2.859375q-0.921875 1.078125 -2.53125 1.078125q-0.703125 0 -1.390625 -0.28125q-0.671875 -0.296875 -1.0625 -0.90625l-0.03125 0l0 3.921875l-1.234375 0l0 -10.484375l1.234375 0l0 1.03125l0.03125 0q0.296875 -0.59375 0.921875 -0.890625q0.640625 -0.3125 1.5 -0.3125zm-2.484375 3.953125q0 1.328125 0.625 2.109375q0.640625 0.765625 1.765625 0.765625q1.078125 0 1.671875 -0.765625q0.59375 -0.78125 0.59375 -2.15625q0 -1.234375 -0.625 -2.015625q-0.625 -0.796875 -1.734375 -0.796875q-1.09375 0 -1.703125 0.8125q-0.59375 0.796875 -0.59375 2.046875zm10.531586 -3.953125q1.546875 0 2.1875 0.5625q0.65625 0.546875 0.65625 1.46875q0 3.9375 0 4.375q0 0.421875 0.390625 0.421875q0.09375 0 0.1875 -0.015625q0.109375 -0.03125 0.203125 -0.0625l0 0.96875q-0.171875 0.109375 -0.40625 0.15625q-0.21875 0.046875 -0.484375 0.046875q-0.515625 0 -0.796875 -0.28125q-0.265625 -0.296875 -0.265625 -0.890625q-0.5 0.59375 -1.171875 0.890625q-0.671875 0.28125 -1.5 0.28125q-1.171875 0 -1.84375 -0.546875q-0.65625 -0.5625 -0.65625 -1.578125q0 -1.015625 0.640625 -1.609375q0.65625 -0.609375 3.078125 -0.90625q0.8125 -0.109375 1.09375 -0.3125q0.296875 -0.203125 0.296875 -0.625q0 -0.625 -0.40625 -0.9375q-0.40625 -0.3125 -1.28125 -0.3125q-0.921875 0 -1.390625 0.359375q-0.453125 0.34375 -0.5 1.078125l-1.234375 0q0.046875 -1.25 0.875 -1.890625q0.84375 -0.640625 2.328125 -0.640625zm-2.1875 5.703125q0 0.53125 0.390625 0.828125q0.390625 0.296875 1.078125 0.296875q1.046875 0 1.671875 -0.515625q0.640625 -0.53125 0.640625 -1.171875l0 -1.3125q-0.3125 0.234375 -0.8125 0.3125q-0.5 0.078125 -1.328125 0.1875q-0.84375 0.125 -1.25 0.453125q-0.390625 0.328125 -0.390625 0.921875zm9.481384 -5.703125q1.53125 0 2.265625 0.59375q0.75 0.59375 0.828125 1.78125l-1.25 0l0 -0.015625q-0.046875 -0.609375 -0.53125 -0.9375q-0.46875 -0.328125 -1.21875 -0.328125q-0.75 0 -1.1875 0.265625q-0.421875 0.25 -0.421875 0.703125q0 0.40625 0.375 0.671875q0.390625 0.265625 1.15625 0.4375l1.171875 0.265625q1.109375 0.234375 1.671875 0.75q0.578125 0.5 0.578125 1.34375q0 1.125 -0.875 1.765625q-0.859375 0.625 -2.34375 0.625q-1.453125 0 -2.3125 -0.640625q-0.84375 -0.65625 -0.90625 -1.921875l1.25 0q0.015625 0.703125 0.546875 1.09375q0.546875 0.375 1.484375 0.375q0.90625 0 1.359375 -0.28125q0.46875 -0.296875 0.46875 -0.84375q0 -0.515625 -0.46875 -0.8125q-0.453125 -0.296875 -1.875 -0.578125q-1.4375 -0.28125 -2.03125 -0.796875q-0.578125 -0.515625 -0.578125 -1.359375q0 -1.0 0.8125 -1.578125q0.8125 -0.578125 2.03125 -0.578125zm6.546875 -2.09375l0 2.265625l1.5 0l0 1.109375l-1.5 0l0 4.734375q0 0.5625 0.375 0.59375q0.375 0.03125 0.78125 0.03125l0.34375 0l0 1.109375l-1.015625 0q-1.03125 0 -1.390625 -0.359375q-0.34375 -0.375 -0.34375 -1.234375l0 -4.875l-1.296875 0l0 -1.109375l1.296875 0l0 -2.265625l1.25 0z" fill-rule="nonzero"/><path fill="#000000" fill-opacity="0.0" d="m192.35039 49.396324l100.81889 0l0 56.0l-100.81889 0z" fill-rule="evenodd"/><path fill="#000000" d="m233.53238 64.726326q1.359375 0 1.984375 0.703125q0.625 0.703125 0.625 2.0l0 5.046875l-1.25 0l0 -5.171875q0 -0.640625 -0.421875 -1.0625q-0.40625 -0.421875 -1.125 -0.421875q-1.0625 0 -1.65625 0.65625q-0.578125 0.640625 -0.578125 1.671875l0 4.328125l-1.25 0l0 -7.578125l1.171875 0l0 1.203125l0.03125 0q0.421875 -0.703125 1.015625 -1.03125q0.609375 -0.34375 1.453125 -0.34375zm7.744858 0q1.71875 0 2.703125 1.109375q0.984375 1.109375 0.984375 2.859375q0 1.765625 -1.015625 2.859375q-1.0 1.09375 -2.671875 1.09375q-1.640625 0 -2.65625 -1.0625q-1.015625 -1.078125 -1.015625 -2.890625q0 -1.796875 0.984375 -2.875q1.0 -1.09375 2.6875 -1.09375zm-2.359375 3.96875q0 1.3125 0.65625 2.09375q0.671875 0.765625 1.703125 0.765625q1.03125 0 1.6875 -0.78125q0.671875 -0.78125 0.671875 -2.078125q0 -1.296875 -0.671875 -2.078125q-0.65625 -0.796875 -1.703125 -0.796875q-1.0 0 -1.671875 0.78125q-0.671875 0.765625 -0.671875 2.09375zm8.197144 -3.796875l1.71875 6.203125l0.03125 0l1.515625 -6.203125l1.359375 0l1.59375 6.15625l0 0.046875l0.03125 0l1.6875 -6.203125l1.2968597 0l-2.4062347 7.5625l-0.015625 0.015625l-1.3125 0l-1.53125 -5.984375l-0.015625 -0.046875l-0.03125 0l-1.515625 6.03125l-1.34375 0l-2.4375 -7.578125l1.375 0z" fill-rule="nonzero"/><path fill="#000000" fill-opacity="0.0" d="m242.77034 49.396324l240.00002 0l0 56.0l-240.00002 0z" fill-rule="evenodd"/><path fill="#000000" d="m334.21548 62.632576l0 2.265625l1.5 0l0 1.109375l-1.5 0l0 4.734375q0 0.5625 0.375 0.59375q0.375 0.03125 0.78125 0.03125l0.34375 0l0 1.109375l-1.015625 0q-1.03125 0 -1.390625 -0.359375q-0.34375 -0.375 -0.34375 -1.234375l0 -4.875l-1.296875 0l0 -1.109375l1.296875 0l0 -2.265625l1.25 0zm4.1314697 -0.625l0 4.0l0.03125 0q0.265625 -0.609375 0.90625 -0.9375q0.65625 -0.34375 1.484375 -0.34375q1.359375 0 1.984375 0.703125q0.625 0.703125 0.625 2.0l0 5.046875l-1.25 0l0 -5.171875q0 -0.640625 -0.421875 -1.0625q-0.40625 -0.421875 -1.125 -0.421875q-1.0625 0 -1.65625 0.65625q-0.578125 0.640625 -0.578125 1.671875l0 4.328125l-1.25 0l0 -10.46875l1.25 0zm10.057373 2.71875q1.625 0 2.515625 1.171875q0.90625 1.171875 0.90625 3.015625l0 0.15625l-5.671875 0l0 0.078125q0 1.09375 0.625 1.75q0.640625 0.65625 1.734375 0.65625q0.828125 0 1.3125 -0.390625q0.5 -0.390625 0.65625 -1.09375l1.234375 0q-0.25 1.265625 -1.109375 1.921875q-0.84375 0.65625 -2.125 0.65625q-1.203125 0 -2.03125 -0.53125q-0.828125 -0.546875 -1.21875 -1.5q-0.390625 -0.96875 -0.390625 -1.96875q0 -1.6875 1.0 -2.796875q1.015625 -1.125 2.5625 -1.125zm-2.25 3.234375l4.359375 0q-0.0625 -0.921875 -0.671875 -1.53125q-0.609375 -0.609375 -1.53125 -0.609375q-0.859375 0 -1.46875 0.578125q-0.609375 0.578125 -0.6875 1.5625zm13.63147 -6.0625q0.15625 0 0.40625 0.03125q0.265625 0.03125 0.40625 0.078125l0 1.09375q-0.140625 -0.0625 -0.34375 -0.078125q-0.203125 -0.03125 -0.34375 -0.03125q-0.53125 0 -0.75 0.21875q-0.203125 0.21875 -0.203125 0.59375l0 1.09375l1.46875 0l0 1.109375l-1.46875 0l0 6.46875l-1.25 0l0 -6.46875l-1.28125 0l0 -1.109375l1.28125 0l0 -1.1875q0 -0.828125 0.515625 -1.3125q0.53125 -0.5 1.5625 -0.5zm2.9930115 3.0l0 5.171875q0 0.640625 0.40625 1.0625q0.40625 0.421875 1.140625 0.421875q1.0625 0 1.640625 -0.65625q0.59375 -0.65625 0.59375 -1.671875l0 -4.328125l1.25 0l0 7.578125l-1.171875 0l0 -1.203125l-0.03125 0q-0.421875 0.71875 -1.046875 1.046875q-0.625 0.328125 -1.421875 0.328125q-1.328125 0 -1.96875 -0.671875q-0.640625 -0.6875 -0.640625 -2.03125l0 -5.046875l1.25 0zm8.635498 -2.265625l0 2.265625l1.5 0l0 1.109375l-1.5 0l0 4.734375q0 0.5625 0.375 0.59375q0.375 0.03125 0.78125 0.03125l0.34375 0l0 1.109375l-1.015625 0q-1.03125 0 -1.390625 -0.359375q-0.34375 -0.375 -0.34375 -1.234375l0 -4.875l-1.296875 0l0 -1.109375l1.296875 0l0 -2.265625l1.25 0zm4.1315002 2.265625l0 5.171875q0 0.640625 0.40625 1.0625q0.40625 0.421875 1.140625 0.421875q1.0625 0 1.640625 -0.65625q0.59375 -0.65625 0.59375 -1.671875l0 -4.328125l1.25 0l0 7.578125l-1.171875 0l0 -1.203125l-0.03125 0q-0.421875 0.71875 -1.046875 1.046875q-0.625 0.328125 -1.421875 0.328125q-1.328125 0 -1.96875 -0.671875q-0.640625 -0.6875 -0.640625 -2.03125l0 -5.046875l1.25 0zm10.666718 -0.171875q0.046875 0 0.078125 0q0.046875 0 0.09375 0l0 1.3125q-1.390625 0 -2.0625 0.75q-0.671875 0.75 -0.671875 2.296875l0 3.390625l-1.25 0l0 -7.578125l1.171875 0l0 1.59375l0.03125 0q0.4375 -0.90625 1.078125 -1.328125q0.640625 -0.4375 1.53125 -0.4375zm4.006317 0q1.625 0 2.515625 1.171875q0.90625 1.171875 0.90625 3.015625l0 0.15625l-5.671875 0l0 0.078125q0 1.09375 0.625 1.75q0.640625 0.65625 1.734375 0.65625q0.828125 0 1.3125 -0.390625q0.5 -0.390625 0.65625 -1.09375l1.234375 0q-0.25 1.265625 -1.109375 1.921875q-0.84375 0.65625 -2.125 0.65625q-1.203125 0 -2.03125 -0.53125q-0.828125 -0.546875 -1.21875 -1.5q-0.390625 -0.96875 -0.390625 -1.96875q0 -1.6875 1.0 -2.796875q1.015625 -1.125 2.5625 -1.125zm-2.25 3.234375l4.359375 0q-0.0625 -0.921875 -0.671875 -1.53125q-0.609375 -0.609375 -1.53125 -0.609375q-0.859375 0 -1.46875 0.578125q-0.609375 0.578125 -0.6875 1.5625z" fill-rule="nonzero"/><g filter="url(#shadowFilter-p.2)"><use xlink:href="#p.2" transform="matrix(1.0 0.0 0.0 1.0 0.0 2.0)"/></g><defs><filter id="shadowFilter-p.2" filterUnits="userSpaceOnUse"><feGaussianBlur in="SourceAlpha" stdDeviation="2.0" result="blur"/><feComponentTransfer in="blur" color-interpolation-filters="sRGB"><feFuncR type="linear" slope="0" intercept="0.0"/><feFuncG type="linear" slope="0" intercept="0.0"/><feFuncB type="linear" slope="0" intercept="0.0"/><feFuncA type="linear" slope="0.5" intercept="0"/></feComponentTransfer></filter></defs><g id="p.2"><path fill="#000000" fill-opacity="0.0" d="m242.76115 6.1889763l0 44.062992" fill-rule="evenodd"/><path stroke="#cc0000" stroke-width="2.0" stroke-linejoin="round" stroke-linecap="butt" d="m242.76115 6.1889763l0 44.062992" fill-rule="evenodd"/></g></g></svg>