<svg version="1.1" viewBox="0.0 0.0 1056.713910761155 512.5853018372703" fill="none" stroke="none" stroke-linecap="square" stroke-miterlimit="10" xmlns:xlink="http://www.w3.org/1999/xlink" xmlns="http://www.w3.org/2000/svg"><clipPath id="p.0"><path d="m0 0l1056.7139 0l0 512.5853l-1056.7139 0l0 -512.5853z" clip-rule="nonzero"/></clipPath><g clip-path="url(#p.0)"><path fill="#000000" fill-opacity="0.0" d="m0 0l1056.7139 0l0 512.5853l-1056.7139 0z" fill-rule="evenodd"/><path fill="#000000" fill-opacity="0.0" d="m121.81721 441.27332l0 0c-28.73581 0.27612305 -55.1773 -15.61496 -68.10437 -40.930054c-12.927074 -25.315125 -10.0725975 -55.614532 7.352165 -78.04108l0 0c-15.371243 -10.616821 -24.7711 -27.72461 -25.356297 -46.14859c-0.58519745 -18.42398 7.7129974 -36.000183 22.384548 -47.412155l0 0c-13.994865 -9.155884 -22.22678 -24.74585 -21.774632 -41.237778c0.45214462 -16.491928 9.524361 -31.551804 23.997353 -39.8356l0 0c-14.1577 -15.161163 -18.202618 -36.99035 -10.384499 -56.041924c7.818119 -19.051575 26.095078 -31.90372 46.922325 -32.995235l0 0c6.4923935 -15.617722 19.567604 -27.675787 35.847427 -33.058777c16.279816 -5.382986 34.16722 -3.5628357 49.04068 4.990183l0 0c23.053131 -13.312099 51.600662 -13.553604 74.98917 -0.63438416c23.388489 12.91922 38.104095 37.05819 38.655212 63.40869c23.076935 3.0481186 42.727264 18.136734 51.376892 39.450035c8.649597 21.313309 4.9478455 45.523148 -9.678497 63.298004c26.646362 11.649719 44.13327 37.304764 44.905792 65.881195c0.77249146 28.576447 -15.307922 54.951416 -41.293915 67.72992c9.448517 20.787598 9.985138 44.391083 1.4888 65.48596c-8.496307 21.094849 -25.309845 37.904205 -46.647858 46.63617l0 0c-0.09994507 20.032135 -12.86731 37.82852 -31.965637 44.556915c-19.098358 6.728363 -40.462128 0.9564209 -53.488556 -14.451233l0 0c-12.722961 16.30185 -34.749527 22.69284 -54.59369 15.840363c-19.844177 -6.8525085 -33.00918 -25.39569 -32.62999 -45.960022z" fill-rule="evenodd"/><path fill="#000000" fill-opacity="0.0" d="m210.08192 471.91833l0 0c6.003998 -7.692871 9.450821 -17.012848 9.877655 -26.708527m75.577805 -3.3925781c0.020904541 -4.1896667 -0.517395 -8.365662 -1.6009827 -12.420288m46.758026 -99.69623c-4.788147 2.3545532 -9.821381 4.198822 -15.013916 5.501404m11.401825 -139.11765l0 0c-4.858032 -2.1239166 -9.928833 -3.7386322 -15.127869 -4.8171844m-26.56903 -97.926994c-24.569 -3.2451935 -48.790817 7.6987305 -62.261475 28.13102m-51.38037 -90.90455c7.937088 4.5642395 14.698288 10.867641 19.753479 18.415993m-104.64337 9.649033l0 0c3.4562912 -0.18113708 6.923378 -0.03328705 10.353203 0.4414978m-46.889812 88.59422l0 0c3.531643 3.7819672 7.598156 7.041321 12.072926 9.67659m-14.297462 71.39734l0 0c3.3611145 2.198944 6.98555 3.979248 10.789818 5.299881m-7.817936 88.26224l0 0c3.687069 -4.745453 7.9478416 -9.030212 12.6887245 -12.760193m48.06405 131.72995l0 0c3.9605408 -0.03805542 7.9105606 -0.38449097 11.813103 -1.0360718" fill-rule="evenodd"/><path stroke="#000000" stroke-width="3.0" stroke-linejoin="round" stroke-linecap="butt" d="m121.81721 441.27332l0 0c-28.73581 0.27612305 -55.1773 -15.61496 -68.10437 -40.930054c-12.927074 -25.315125 -10.0725975 -55.614532 7.352165 -78.04108l0 0c-15.371243 -10.616821 -24.7711 -27.72461 -25.356297 -46.14859c-0.58519745 -18.42398 7.7129974 -36.000183 22.384548 -47.412155l0 0c-13.994865 -9.155884 -22.22678 -24.74585 -21.774632 -41.237778c0.45214462 -16.491928 9.524361 -31.551804 23.997353 -39.8356l0 0c-14.1577 -15.161163 -18.202618 -36.99035 -10.384499 -56.041924c7.818119 -19.051575 26.095078 -31.90372 46.922325 -32.995235l0 0c6.4923935 -15.617722 19.567604 -27.675787 35.847427 -33.058777c16.279816 -5.382986 34.16722 -3.5628357 49.04068 4.990183l0 0c23.053131 -13.312099 51.600662 -13.553604 74.98917 -0.63438416c23.388489 12.91922 38.104095 37.05819 38.655212 63.40869c23.076935 3.0481186 42.727264 18.136734 51.376892 39.450035c8.649597 21.313309 4.9478455 45.523148 -9.678497 63.298004c26.646362 11.649719 44.13327 37.304764 44.905792 65.881195c0.77249146 28.576447 -15.307922 54.951416 -41.293915 67.72992c9.448517 20.787598 9.985138 44.391083 1.4888 65.48596c-8.496307 21.094849 -25.309845 37.904205 -46.647858 46.63617l0 0c-0.09994507 20.032135 -12.86731 37.82852 -31.965637 44.556915c-19.098358 6.728363 -40.462128 0.9564209 -53.488556 -14.451233l0 0c-12.722961 16.30185 -34.749527 22.69284 -54.59369 15.840363c-19.844177 -6.8525085 -33.00918 -25.39569 -32.62999 -45.960022z" fill-rule="evenodd"/><path stroke="#000000" stroke-width="3.0" stroke-linejoin="round" stroke-linecap="butt" d="m210.08192 471.91833l0 0c6.003998 -7.692871 9.450821 -17.012848 9.877655 -26.708527m75.577805 -3.3925781c0.020904541 -4.1896667 -0.517395 -8.365662 -1.6009827 -12.420288m46.758026 -99.69623c-4.788147 2.3545532 -9.821381 4.198822 -15.013916 5.501404m11.401825 -139.11765l0 0c-4.858032 -2.1239166 -9.928833 -3.7386322 -15.127869 -4.8171844m-26.56903 -97.926994c-24.569 -3.2451935 -48.790817 7.6987305 -62.261475 28.13102m-51.38037 -90.90455c7.937088 4.5642395 14.698288 10.867641 19.753479 18.415993m-104.64337 9.649033l0 0c3.4562912 -0.18113708 6.923378 -0.03328705 10.353203 0.4414978m-46.889812 88.59422l0 0c3.531643 3.7819672 7.598156 7.041321 12.072926 9.67659m-14.297462 71.39734l0 0c3.3611145 2.198944 6.98555 3.979248 10.789818 5.299881m-7.817936 88.26224l0 0c3.687069 -4.745453 7.9478416 -9.030212 12.6887245 -12.760193m48.06405 131.72995l0 0c3.9605408 -0.03805542 7.9105606 -0.38449097 11.813103 -1.0360718" fill-rule="evenodd"/><path fill="#000000" fill-opacity="0.0" d="m90.83465 71.091866l132.40945 0l0 74.23621l-132.40945 0z" fill-rule="evenodd"/><path fill="#000000" d="m117.61359 94.05374l0.703125 0q1.546875 0 2.453125 -0.609375q0.90625 -0.609375 1.203125 -1.96875q0.265625 -1.28125 -0.296875 -1.890625q-0.5625 -0.609375 -2.046875 -0.609375l-0.921875 0l-1.09375 5.078125zm8.0625 -2.71875q-0.234375 1.125 -0.796875 2.15625q-0.5625 1.03125 -1.5 1.828125q-0.9375 0.78125 -2.3125 1.25q-1.375 0.46875 -3.25 0.46875l-0.828125 0l-1.296875 6.09375l-3.640625 0l3.640625 -17.140625l4.765625 0q1.640625 0 2.765625 0.375q1.125 0.375 1.75 1.0625q0.640625 0.671875 0.796875 1.671875q0.171875 0.984375 -0.09375 2.234375zm11.824219 11.796875l-3.578125 0l1.625 -7.65625q0.296875 -1.421875 0.015625 -2.125q-0.28125 -0.703125 -1.203125 -0.703125q-0.6875 0 -1.21875 0.28125q-0.53125 0.28125 -0.9375 0.828125q-0.390625 0.546875 -0.6875 1.359375q-0.28125 0.8125 -0.5 1.84375l-1.3125 6.171875l-3.578125 0l3.875 -18.234375l3.578125 0l-0.796875 3.71875q-0.09375 0.484375 -0.234375 1.03125q-0.140625 0.546875 -0.265625 1.0q-0.171875 0.546875 -0.328125 1.0625l0.1875 0q0.796875 -1.03125 1.78125 -1.46875q1.0 -0.453125 2.125 -0.453125q0.96875 0 1.703125 0.28125q0.734375 0.265625 1.171875 0.859375q0.4375 0.578125 0.546875 1.484375q0.109375 0.90625 -0.15625 2.171875l-1.8125 8.546875zm4.578125 -13.109375l3.921875 0l0.546875 7.375q0.0625 0.609375 0 1.3125q-0.0625 0.6875 -0.171875 1.234375l0.078125 0q0.078125 -0.265625 0.1875 -0.59375q0.125 -0.328125 0.25 -0.671875q0.125 -0.34375 0.265625 -0.671875q0.15625 -0.34375 0.296875 -0.609375l3.625 -7.375l3.9375 0l-8.3125 14.78125q-1.171875 2.078125 -2.640625 3.078125q-1.453125 1.015625 -3.34375 1.015625q-0.609375 0 -1.046875 -0.0625q-0.4375 -0.0625 -0.734375 -0.140625l0.609375 -2.828125q0.21875 0.0625 0.578125 0.109375q0.375 0.046875 0.796875 0.046875q0.5625 0 0.984375 -0.15625q0.4375 -0.15625 0.765625 -0.4375q0.34375 -0.265625 0.640625 -0.65625q0.296875 -0.390625 0.53125 -0.859375l0.375 -0.65625l-2.140625 -13.234375zm21.59375 9.21875q-0.21875 1.03125 -0.765625 1.8125q-0.53125 0.765625 -1.34375 1.28125q-0.796875 0.515625 -1.84375 0.78125q-1.03125 0.25 -2.25 0.25q-0.640625 0 -1.1875 -0.046875q-0.53125 -0.03125 -1.015625 -0.125q-0.46875 -0.09375 -0.90625 -0.234375q-0.421875 -0.140625 -0.84375 -0.359375l0.625 -2.953125q0.453125 0.25 0.953125 0.453125q0.5 0.1875 1.0 0.34375q0.515625 0.140625 1.0 0.234375q0.5 0.078125 0.921875 0.078125q0.484375 0 0.84375 -0.09375q0.375 -0.09375 0.609375 -0.25q0.25 -0.15625 0.390625 -0.375q0.15625 -0.21875 0.203125 -0.453125q0.0625 -0.25 0.015625 -0.4375q-0.03125 -0.203125 -0.25 -0.421875q-0.21875 -0.21875 -0.6875 -0.484375q-0.46875 -0.28125 -1.25 -0.671875q-0.78125 -0.390625 -1.328125 -0.765625q-0.546875 -0.390625 -0.859375 -0.859375q-0.296875 -0.46875 -0.359375 -1.0625q-0.0625 -0.609375 0.109375 -1.4375q0.1875 -0.921875 0.6875 -1.609375q0.5 -0.6875 1.234375 -1.140625q0.734375 -0.453125 1.6875 -0.671875q0.96875 -0.234375 2.09375 -0.234375q1.171875 0 2.15625 0.265625q1.0 0.265625 2.0 0.8125l-1.625 2.53125q-0.796875 -0.421875 -1.546875 -0.6875q-0.75 -0.28125 -1.546875 -0.28125q-0.734375 0 -1.109375 0.265625q-0.375 0.25 -0.484375 0.703125q-0.046875 0.234375 -0.015625 0.421875q0.046875 0.171875 0.25 0.375q0.21875 0.1875 0.609375 0.421875q0.40625 0.21875 1.046875 0.546875q0.765625 0.359375 1.34375 0.71875q0.59375 0.359375 0.96875 0.8125q0.390625 0.453125 0.515625 1.0625q0.140625 0.609375 -0.046875 1.484375zm5.3242188 -12.59375q0.109375 -0.515625 0.328125 -0.84375q0.234375 -0.328125 0.546875 -0.53125q0.3125 -0.21875 0.671875 -0.296875q0.375 -0.078125 0.78125 -0.078125q0.390625 0 0.71875 0.078125q0.34375 0.078125 0.5625 0.296875q0.21875 0.203125 0.296875 0.53125q0.09375 0.328125 -0.015625 0.84375q-0.09375 0.484375 -0.328125 0.828125q-0.234375 0.34375 -0.546875 0.546875q-0.296875 0.203125 -0.671875 0.296875q-0.375 0.078125 -0.765625 0.078125q-0.40625 0 -0.734375 -0.078125q-0.328125 -0.09375 -0.5625 -0.296875q-0.21875 -0.203125 -0.296875 -0.546875q-0.078125 -0.34375 0.015625 -0.828125zm0.234375 16.484375l-3.578125 0l2.78125 -13.109375l3.578125 0l-2.78125 13.109375zm9.152344 0.234375q-1.40625 0 -2.46875 -0.390625q-1.046875 -0.390625 -1.671875 -1.203125q-0.625 -0.8125 -0.78125 -2.078125q-0.15625 -1.28125 0.21875 -3.046875q0.421875 -1.953125 1.140625 -3.265625q0.71875 -1.328125 1.6875 -2.125q0.96875 -0.796875 2.171875 -1.125q1.203125 -0.34375 2.59375 -0.34375q1.0 0 1.9375 0.25q0.953125 0.234375 1.734375 0.6875l-1.609375 2.71875q-0.703125 -0.34375 -1.375 -0.5625q-0.671875 -0.21875 -1.3125 -0.21875q-1.296875 0 -2.09375 1.0q-0.796875 0.984375 -1.21875 2.96875q-0.40625 1.96875 -0.03125 2.90625q0.390625 0.9375 1.640625 0.9375q1.015625 0 1.90625 -0.265625q0.890625 -0.265625 1.84375 -0.671875l-0.625 2.96875q-0.484375 0.21875 -0.9375 0.390625q-0.4375 0.15625 -0.875 0.25q-0.4375 0.109375 -0.90625 0.15625q-0.453125 0.0625 -0.96875 0.0625zm14.1796875 -0.234375l-0.3125 -1.78125l-0.109375 0q-0.5 0.53125 -0.96875 0.90625q-0.453125 0.375 -0.96875 0.625q-0.515625 0.25 -1.109375 0.359375q-0.59375 0.125 -1.34375 0.125q-0.796875 0 -1.421875 -0.25q-0.625 -0.25 -1.015625 -0.765625q-0.375 -0.515625 -0.5 -1.28125q-0.109375 -0.78125 0.109375 -1.859375q0.453125 -2.078125 2.0 -3.0625q1.546875 -1.0 4.21875 -1.109375l2.09375 -0.0625l0.203125 -0.984375q0.171875 -0.8125 -0.21875 -1.1875q-0.375 -0.390625 -1.21875 -0.390625q-0.84375 0 -1.703125 0.25q-0.84375 0.234375 -1.734375 0.640625l-0.65625 -2.359375q1.09375 -0.546875 2.359375 -0.859375q1.265625 -0.328125 2.578125 -0.328125q2.4375 0 3.5 1.15625q1.078125 1.140625 0.578125 3.484375l-1.859375 8.734375l-2.5 0zm0.234375 -6.078125l-1.1875 0.046875q-0.71875 0.03125 -1.25 0.203125q-0.53125 0.15625 -0.890625 0.4375q-0.34375 0.265625 -0.578125 0.65625q-0.21875 0.375 -0.3125 0.84375q-0.171875 0.8125 0.140625 1.171875q0.328125 0.34375 0.984375 0.34375q0.484375 0 0.9375 -0.171875q0.46875 -0.171875 0.84375 -0.5q0.390625 -0.34375 0.65625 -0.828125q0.28125 -0.484375 0.421875 -1.125l0.234375 -1.078125zm9.515625 6.078125l-3.578125 0l3.875 -18.234375l3.578125 0l-3.875 18.234375z" fill-rule="nonzero"/><path fill="#000000" d="m136.92218 132.13187l-3.625 0l3.0 -14.109375l-4.296875 0l0.640625 -3.03125l12.203125 0l-0.640625 3.03125l-4.28125 0l-3.0 14.109375zm9.984375 -16.484375q0.109375 -0.515625 0.328125 -0.84375q0.234375 -0.328125 0.546875 -0.53125q0.3125 -0.21875 0.671875 -0.296875q0.375 -0.078125 0.78125 -0.078125q0.390625 0 0.71875 0.078125q0.34375 0.078125 0.5625 0.296875q0.21875 0.203125 0.296875 0.53125q0.09375 0.328125 -0.015625 0.84375q-0.09375 0.484375 -0.328125 0.828125q-0.234375 0.34375 -0.546875 0.546875q-0.296875 0.203125 -0.671875 0.296875q-0.375 0.078125 -0.765625 0.078125q-0.40625 0 -0.734375 -0.078125q-0.328125 -0.09375 -0.5625 -0.296875q-0.21875 -0.203125 -0.296875 -0.546875q-0.078125 -0.34375 0.015625 -0.828125zm0.234375 16.484375l-3.578125 0l2.78125 -13.109375l3.578125 0l-2.78125 13.109375zm14.996094 0l-3.578125 0l1.625 -7.65625q0.296875 -1.421875 0.03125 -2.125q-0.265625 -0.703125 -1.15625 -0.703125q-0.6875 0 -1.203125 0.28125q-0.515625 0.28125 -0.90625 0.828125q-0.375 0.546875 -0.671875 1.359375q-0.28125 0.8125 -0.5 1.84375l-1.3125 6.171875l-3.578125 0l2.78125 -13.109375l2.734375 0l0.125 1.6875l0.1875 0q0.390625 -0.515625 0.859375 -0.875q0.484375 -0.359375 1.0 -0.59375q0.53125 -0.234375 1.078125 -0.34375q0.546875 -0.109375 1.09375 -0.109375q1.34375 0 2.1875 0.46875q0.84375 0.453125 1.125 1.453125l0.296875 0q0.390625 -0.515625 0.859375 -0.875q0.484375 -0.359375 1.015625 -0.59375q0.53125 -0.234375 1.078125 -0.34375q0.5625 -0.109375 1.109375 -0.109375q2.109375 0 2.921875 1.140625q0.828125 1.140625 0.296875 3.65625l-1.8125 8.546875l-3.578125 0l1.625 -7.65625q0.296875 -1.421875 0.03125 -2.125q-0.265625 -0.703125 -1.171875 -0.703125q-1.28125 0 -2.046875 1.015625q-0.75 1.0 -1.15625 2.890625l-1.390625 6.578125zm18.949219 -10.8125q-0.953125 0 -1.71875 0.671875q-0.765625 0.671875 -1.171875 2.09375l4.5625 0q0.125 -0.59375 0.078125 -1.09375q-0.03125 -0.5 -0.234375 -0.875q-0.203125 -0.375 -0.578125 -0.578125q-0.375 -0.21875 -0.9375 -0.21875zm-1.890625 11.046875q-1.40625 0 -2.5 -0.40625q-1.09375 -0.421875 -1.78125 -1.234375q-0.6875 -0.828125 -0.890625 -2.09375q-0.1875 -1.265625 0.171875 -2.953125q0.359375 -1.734375 1.0625 -3.015625q0.703125 -1.296875 1.671875 -2.15625q0.96875 -0.859375 2.15625 -1.28125q1.1875 -0.4375 2.53125 -0.4375q1.296875 0 2.25 0.390625q0.96875 0.390625 1.53125 1.15625q0.578125 0.75 0.734375 1.859375q0.15625 1.109375 -0.140625 2.546875l-0.375 1.734375l-7.984375 0q-0.140625 0.75 -0.0625 1.359375q0.09375 0.59375 0.390625 1.015625q0.3125 0.40625 0.8125 0.640625q0.515625 0.21875 1.234375 0.21875q0.59375 0 1.140625 -0.0625q0.5625 -0.078125 1.078125 -0.203125q0.53125 -0.125 1.0625 -0.3125q0.546875 -0.203125 1.109375 -0.453125l-0.59375 2.765625q-0.515625 0.234375 -1.03125 0.40625q-0.515625 0.171875 -1.0625 0.28125q-0.546875 0.125 -1.171875 0.171875q-0.609375 0.0625 -1.34375 0.0625z" fill-rule="nonzero"/><path fill="#efefef" d="m111.902885 183.659l0 0c0 -5.633133 4.566551 -10.1996765 10.199684 -10.1996765l132.07307 0c2.705124 0 5.2994537 1.0746002 7.212265 2.9874115c1.9128113 1.9128113 2.9874268 4.507141 2.9874268 7.212265l0 40.797485c0 5.633133 -4.566559 10.199692 -10.199692 10.199692l-132.07307 0l0 0c-5.633133 0 -10.199684 -4.566559 -10.199684 -10.199692z" fill-rule="evenodd"/><path stroke="#000000" stroke-width="1.0" stroke-linejoin="round" stroke-linecap="butt" d="m111.902885 183.659l0 0c0 -5.633133 4.566551 -10.1996765 10.199684 -10.1996765l132.07307 0c2.705124 0 5.2994537 1.0746002 7.212265 2.9874115c1.9128113 1.9128113 2.9874268 4.507141 2.9874268 7.212265l0 40.797485c0 5.633133 -4.566559 10.199692 -10.199692 10.199692l-132.07307 0l0 0c-5.633133 0 -10.199684 -4.566559 -10.199684 -10.199692z" fill-rule="evenodd"/><path fill="#000000" d="m141.96136 194.70337q0 -0.59375 0.171875 -0.984375q0.171875 -0.390625 0.484375 -0.625q0.3125 -0.234375 0.71875 -0.328125q0.421875 -0.109375 0.890625 -0.109375q0.46875 0 0.875 0.109375q0.40625 0.09375 0.71875 0.328125q0.3125 0.234375 0.484375 0.625q0.1875 0.390625 0.1875 0.984375q0 0.578125 -0.1875 0.96875q-0.171875 0.390625 -0.484375 0.640625q-0.3125 0.234375 -0.71875 0.34375q-0.40625 0.09375 -0.875 0.09375q-0.46875 0 -0.890625 -0.09375q-0.40625 -0.109375 -0.71875 -0.34375q-0.3125 -0.25 -0.484375 -0.640625q-0.171875 -0.390625 -0.171875 -0.96875zm4.34375 19.234375l-4.171875 0l0 -15.28125l4.171875 0l0 15.28125zm17.638672 0l-4.171875 0l0 -8.921875q0 -1.65625 -0.5 -2.484375q-0.5 -0.828125 -1.59375 -0.828125q-0.8125 0 -1.359375 0.328125q-0.546875 0.328125 -0.875 0.96875q-0.328125 0.640625 -0.46875 1.59375q-0.125 0.9375 -0.125 2.15625l0 7.1875l-4.171875 0l0 -15.28125l3.1875 0l0.5625 1.953125l0.234375 0q0.328125 -0.59375 0.796875 -1.015625q0.46875 -0.421875 1.03125 -0.6875q0.5625 -0.28125 1.1875 -0.40625q0.625 -0.140625 1.28125 -0.140625q1.125 0 2.03125 0.328125q0.921875 0.3125 1.578125 1.0q0.65625 0.6875 1.015625 1.75q0.359375 1.0625 0.359375 2.53125l0 9.96875zm14.4765625 -4.546875q0 1.203125 -0.4375 2.109375q-0.4375 0.90625 -1.25 1.515625q-0.796875 0.59375 -1.953125 0.90625q-1.140625 0.296875 -2.5625 0.296875q-0.75 0 -1.40625 -0.0625q-0.640625 -0.046875 -1.21875 -0.15625q-0.5625 -0.109375 -1.09375 -0.265625q-0.53125 -0.171875 -1.078125 -0.40625l0 -3.453125q0.5625 0.28125 1.203125 0.515625q0.640625 0.234375 1.265625 0.40625q0.625 0.171875 1.21875 0.265625q0.59375 0.09375 1.109375 0.09375q0.5625 0 0.953125 -0.09375q0.390625 -0.109375 0.640625 -0.28125q0.265625 -0.1875 0.375 -0.4375q0.125 -0.265625 0.125 -0.546875q0 -0.296875 -0.09375 -0.515625q-0.09375 -0.21875 -0.40625 -0.46875q-0.3125 -0.265625 -0.921875 -0.578125q-0.609375 -0.328125 -1.640625 -0.796875q-0.984375 -0.453125 -1.71875 -0.890625q-0.734375 -0.4375 -1.203125 -0.984375q-0.46875 -0.546875 -0.703125 -1.25q-0.234375 -0.71875 -0.234375 -1.6875q0 -1.0625 0.40625 -1.859375q0.40625 -0.796875 1.15625 -1.328125q0.765625 -0.546875 1.8125 -0.8125q1.0625 -0.265625 2.359375 -0.265625q1.375 0 2.59375 0.328125q1.234375 0.3125 2.53125 0.9375l-1.25 2.953125q-1.046875 -0.5 -1.984375 -0.8125q-0.9375 -0.3125 -1.890625 -0.3125q-0.84375 0 -1.21875 0.3125q-0.375 0.296875 -0.375 0.8125q0 0.265625 0.09375 0.484375q0.09375 0.203125 0.375 0.4375q0.296875 0.21875 0.8125 0.484375q0.515625 0.265625 1.359375 0.65625q0.96875 0.421875 1.75 0.84375q0.78125 0.40625 1.328125 0.953125q0.5625 0.53125 0.859375 1.25q0.3125 0.703125 0.3125 1.703125zm9.482422 1.5q0.625 0 1.171875 -0.140625q0.5625 -0.140625 1.125 -0.34375l0 3.109375q-0.578125 0.296875 -1.453125 0.5q-0.859375 0.203125 -1.890625 0.203125q-1.0 0 -1.859375 -0.234375q-0.859375 -0.234375 -1.5 -0.8125q-0.625 -0.59375 -0.984375 -1.5625q-0.359375 -0.984375 -0.359375 -2.453125l0 -7.375l-2.0 0l0 -1.765625l2.296875 -1.390625l1.203125 -3.234375l2.671875 0l0 3.265625l3.71875 0l0 3.125l-3.71875 0l0 7.375q0 0.890625 0.4375 1.3125q0.4375 0.421875 1.140625 0.421875zm14.265625 3.046875l-0.8125 -2.078125l-0.125 0q-0.4375 0.609375 -0.890625 1.0625q-0.453125 0.4375 -0.984375 0.734375q-0.53125 0.28125 -1.203125 0.421875q-0.65625 0.140625 -1.53125 0.140625q-0.9375 0 -1.734375 -0.296875q-0.78125 -0.296875 -1.375 -0.890625q-0.578125 -0.59375 -0.90625 -1.5q-0.328125 -0.921875 -0.328125 -2.15625q0 -2.4375 1.5625 -3.59375q1.5625 -1.15625 4.65625 -1.28125l2.4375 -0.078125l0 -1.15625q0 -0.9375 -0.546875 -1.390625q-0.546875 -0.453125 -1.53125 -0.453125q-0.984375 0 -1.921875 0.296875q-0.9375 0.28125 -1.875 0.765625l-1.359375 -2.765625q1.15625 -0.640625 2.546875 -1.0q1.390625 -0.375 2.921875 -0.375q2.859375 0 4.375 1.34375q1.53125 1.328125 1.53125 4.0625l0 10.1875l-2.90625 0zm-1.234375 -7.078125l-1.375 0.046875q-0.84375 0.03125 -1.421875 0.21875q-0.5625 0.1875 -0.921875 0.515625q-0.34375 0.328125 -0.5 0.765625q-0.15625 0.4375 -0.15625 0.984375q0 0.96875 0.46875 1.375q0.46875 0.390625 1.21875 0.390625q0.578125 0 1.0625 -0.1875q0.5 -0.203125 0.859375 -0.59375q0.359375 -0.390625 0.5625 -0.953125q0.203125 -0.578125 0.203125 -1.3125l0 -1.25zm21.703125 7.078125l-4.171875 0l0 -8.921875q0 -1.65625 -0.5 -2.484375q-0.5 -0.828125 -1.59375 -0.828125q-0.8125 0 -1.359375 0.328125q-0.546875 0.328125 -0.875 0.96875q-0.328125 0.640625 -0.46875 1.59375q-0.125 0.9375 -0.125 2.15625l0 7.1875l-4.171875 0l0 -15.28125l3.1875 0l0.5625 1.953125l0.234375 0q0.328125 -0.59375 0.796875 -1.015625q0.46875 -0.421875 1.03125 -0.6875q0.5625 -0.28125 1.1875 -0.40625q0.625 -0.140625 1.28125 -0.140625q1.125 0 2.03125 0.328125q0.921875 0.3125 1.578125 1.0q0.65625 0.6875 1.015625 1.75q0.359375 1.0625 0.359375 2.53125l0 9.96875zm10.4921875 -3.046875q0.625 0 1.171875 -0.140625q0.5625 -0.140625 1.125 -0.34375l0 3.109375q-0.578125 0.296875 -1.453125 0.5q-0.859375 0.203125 -1.890625 0.203125q-1.0 0 -1.859375 -0.234375q-0.859375 -0.234375 -1.5 -0.8125q-0.625 -0.59375 -0.984375 -1.5625q-0.359375 -0.984375 -0.359375 -2.453125l0 -7.375l-2.0 0l0 -1.765625l2.296875 -1.390625l1.203125 -3.234375l2.671875 0l0 3.265625l3.71875 0l0 3.125l-3.71875 0l0 7.375q0 0.890625 0.4375 1.3125q0.4375 0.421875 1.140625 0.421875z" fill-rule="nonzero"/><path fill="#efefef" d="m127.902885 343.659l0 0c0 -5.6331177 4.566551 -10.1996765 10.199684 -10.1996765l132.07309 0c2.7051086 0 5.2994385 1.0746155 7.2122498 2.9874268c1.9128113 1.9128113 2.9874268 4.507141 2.9874268 7.2122498l0 40.797485c0 5.633148 -4.566559 10.1996765 -10.1996765 10.1996765l-132.07309 0l0 0c-5.633133 0 -10.199684 -4.5665283 -10.199684 -10.1996765z" fill-rule="evenodd"/><path stroke="#000000" stroke-width="1.0" stroke-linejoin="round" stroke-linecap="butt" d="m127.902885 343.659l0 0c0 -5.6331177 4.566551 -10.1996765 10.199684 -10.1996765l132.07309 0c2.7051086 0 5.2994385 1.0746155 7.2122498 2.9874268c1.9128113 1.9128113 2.9874268 4.507141 2.9874268 7.2122498l0 40.797485c0 5.633148 -4.566559 10.1996765 -10.1996765 10.1996765l-132.07309 0l0 0c-5.633133 0 -10.199684 -4.5665283 -10.199684 -10.1996765z" fill-rule="evenodd"/><path fill="#000000" d="m152.32465 374.219q-1.171875 0 -2.15625 -0.5q-0.96875 -0.515625 -1.671875 -1.5q-0.6875 -1.0 -1.078125 -2.46875q-0.390625 -1.484375 -0.390625 -3.421875q0 -1.96875 0.390625 -3.453125q0.390625 -1.484375 1.109375 -2.484375q0.71875 -1.015625 1.71875 -1.515625q1.0 -0.515625 2.203125 -0.515625q0.734375 0 1.34375 0.171875q0.625 0.171875 1.109375 0.484375q0.5 0.3125 0.890625 0.71875q0.390625 0.390625 0.6875 0.875l0.140625 0q-0.09375 -0.53125 -0.15625 -1.078125q-0.0625 -0.46875 -0.109375 -0.984375q-0.046875 -0.53125 -0.046875 -0.984375l0 -4.90625l4.15625 0l0 21.28125l-3.171875 0l-0.8125 -1.984375l-0.171875 0q-0.296875 0.46875 -0.671875 0.890625q-0.359375 0.40625 -0.84375 0.71875q-0.484375 0.296875 -1.09375 0.46875q-0.609375 0.1875 -1.375 0.1875zm1.515625 -3.328125q0.734375 0 1.25 -0.25q0.53125 -0.265625 0.84375 -0.765625q0.328125 -0.515625 0.484375 -1.28125q0.15625 -0.765625 0.171875 -1.796875l0 -0.453125q0 -1.109375 -0.140625 -1.96875q-0.140625 -0.859375 -0.453125 -1.4375q-0.3125 -0.578125 -0.84375 -0.875q-0.53125 -0.3125 -1.34375 -0.3125q-1.3125 0 -1.921875 1.1875q-0.609375 1.1875 -0.609375 3.4375q0 2.25 0.609375 3.390625q0.625 1.125 1.953125 1.125zm21.00586 3.046875l-0.5625 -1.953125l-0.21875 0q-0.34375 0.578125 -0.8125 1.0q-0.46875 0.421875 -1.03125 0.703125q-0.5625 0.265625 -1.203125 0.390625q-0.625 0.140625 -1.28125 0.140625q-1.109375 0 -2.03125 -0.328125q-0.921875 -0.328125 -1.578125 -1.0q-0.65625 -0.6875 -1.015625 -1.734375q-0.34375 -1.0625 -0.34375 -2.53125l0 -9.96875l4.171875 0l0 8.921875q0 1.65625 0.5 2.484375q0.5 0.828125 1.59375 0.828125q0.8125 0 1.359375 -0.328125q0.546875 -0.328125 0.859375 -0.96875q0.328125 -0.640625 0.46875 -1.578125q0.140625 -0.953125 0.140625 -2.171875l0 -7.1875l4.171875 0l0 15.28125l-3.1875 0zm15.5234375 -15.578125q0.171875 0 0.359375 0.015625q0.203125 0 0.390625 0.03125q0.1875 0.015625 0.34375 0.03125q0.15625 0.015625 0.234375 0.046875l0 3.90625q-0.109375 -0.015625 -0.296875 -0.046875q-0.1875 -0.03125 -0.40625 -0.046875q-0.21875 -0.015625 -0.421875 -0.015625q-0.203125 -0.015625 -0.34375 -0.015625q-0.796875 0 -1.484375 0.203125q-0.671875 0.203125 -1.15625 0.671875q-0.484375 0.453125 -0.75 1.203125q-0.265625 0.734375 -0.265625 1.8125l0 7.78125l-4.171875 0l0 -15.28125l3.15625 0l0.625 2.296875l0.203125 0q0.328125 -0.59375 0.703125 -1.0625q0.390625 -0.484375 0.859375 -0.8125q0.46875 -0.34375 1.0625 -0.53125q0.59375 -0.1875 1.359375 -0.1875zm12.787109 15.578125l-0.8125 -2.078125l-0.125 0q-0.4375 0.609375 -0.890625 1.0625q-0.453125 0.4375 -0.984375 0.734375q-0.53125 0.28125 -1.203125 0.421875q-0.65625 0.140625 -1.53125 0.140625q-0.9375 0 -1.734375 -0.296875q-0.78125 -0.296875 -1.375 -0.890625q-0.578125 -0.59375 -0.90625 -1.5q-0.328125 -0.921875 -0.328125 -2.15625q0 -2.4375 1.5625 -3.59375q1.5625 -1.15625 4.65625 -1.28125l2.4375 -0.078125l0 -1.15625q0 -0.9375 -0.546875 -1.390625q-0.546875 -0.453125 -1.53125 -0.453125q-0.984375 0 -1.921875 0.296875q-0.9375 0.28125 -1.875 0.765625l-1.359375 -2.765625q1.15625 -0.640625 2.546875 -1.0q1.390625 -0.375 2.921875 -0.375q2.859375 0 4.375 1.34375q1.53125 1.328125 1.53125 4.0625l0 10.1875l-2.90625 0zm-1.234375 -7.078125l-1.375 0.046875q-0.84375 0.03125 -1.421875 0.21875q-0.5625 0.1875 -0.921875 0.515625q-0.34375 0.328125 -0.5 0.765625q-0.15625 0.4375 -0.15625 0.984375q0 0.96875 0.46875 1.375q0.46875 0.390625 1.21875 0.390625q0.578125 0 1.0625 -0.1875q0.5 -0.203125 0.859375 -0.59375q0.359375 -0.390625 0.5625 -0.953125q0.203125 -0.578125 0.203125 -1.3125l0 -1.25zm14.640625 4.03125q0.625 0 1.171875 -0.140625q0.5625 -0.140625 1.125 -0.34375l0 3.109375q-0.578125 0.296875 -1.453125 0.5q-0.859375 0.203125 -1.890625 0.203125q-1.0 0 -1.859375 -0.234375q-0.859375 -0.234375 -1.5 -0.8125q-0.625 -0.59375 -0.984375 -1.5625q-0.359375 -0.984375 -0.359375 -2.453125l0 -7.375l-2.0 0l0 -1.765625l2.296875 -1.390625l1.203125 -3.234375l2.671875 0l0 3.265625l3.71875 0l0 3.125l-3.71875 0l0 7.375q0 0.890625 0.4375 1.3125q0.4375 0.421875 1.140625 0.421875zm5.21875 -16.1875q0 -0.59375 0.171875 -0.984375q0.171875 -0.390625 0.484375 -0.625q0.3125 -0.234375 0.71875 -0.328125q0.421875 -0.109375 0.890625 -0.109375q0.46875 0 0.875 0.109375q0.40625 0.09375 0.71875 0.328125q0.3125 0.234375 0.484375 0.625q0.1875 0.390625 0.1875 0.984375q0 0.578125 -0.1875 0.96875q-0.171875 0.390625 -0.484375 0.640625q-0.3125 0.234375 -0.71875 0.34375q-0.40625 0.09375 -0.875 0.09375q-0.46875 0 -0.890625 -0.09375q-0.40625 -0.109375 -0.71875 -0.34375q-0.3125 -0.25 -0.484375 -0.640625q-0.171875 -0.390625 -0.171875 -0.96875zm4.34375 19.234375l-4.171875 0l0 -15.28125l4.171875 0l0 15.28125zm7.841797 -7.671875q0 2.28125 0.640625 3.4375q0.65625 1.15625 2.09375 1.15625q1.4375 0 2.078125 -1.15625q0.640625 -1.171875 0.640625 -3.4375q0 -2.28125 -0.640625 -3.40625q-0.640625 -1.125 -2.09375 -1.125q-1.4375 0 -2.078125 1.125q-0.640625 1.125 -0.640625 3.40625zm9.71875 0q0 1.921875 -0.5 3.40625q-0.484375 1.46875 -1.390625 2.484375q-0.90625 1.0 -2.21875 1.53125q-1.296875 0.53125 -2.921875 0.53125q-1.515625 0 -2.796875 -0.53125q-1.265625 -0.53125 -2.1875 -1.53125q-0.921875 -1.015625 -1.453125 -2.484375q-0.515625 -1.484375 -0.515625 -3.40625q0 -1.90625 0.484375 -3.375q0.484375 -1.484375 1.390625 -2.484375q0.921875 -1.0 2.21875 -1.515625q1.296875 -0.53125 2.9375 -0.53125q1.515625 0 2.78125 0.53125q1.28125 0.515625 2.203125 1.515625q0.921875 1.0 1.4375 2.484375q0.53125 1.46875 0.53125 3.375zm16.853516 7.671875l-4.171875 0l0 -8.921875q0 -1.65625 -0.5 -2.484375q-0.5 -0.828125 -1.59375 -0.828125q-0.8125 0 -1.359375 0.328125q-0.546875 0.328125 -0.875 0.96875q-0.328125 0.640625 -0.46875 1.59375q-0.125 0.9375 -0.125 2.15625l0 7.1875l-4.171875 0l0 -15.28125l3.1875 0l0.5625 1.953125l0.234375 0q0.328125 -0.59375 0.796875 -1.015625q0.46875 -0.421875 1.03125 -0.6875q0.5625 -0.28125 1.1875 -0.40625q0.625 -0.140625 1.28125 -0.140625q1.125 0 2.03125 0.328125q0.921875 0.3125 1.578125 1.0q0.65625 0.6875 1.015625 1.75q0.359375 1.0625 0.359375 2.53125l0 9.96875z" fill-rule="nonzero"/><path fill="#000000" fill-opacity="0.0" d="m172.13911 242.65617c0 20.70079 4.0 31.051163 8.0 41.401566c4.0 10.350403 8.0 20.700806 8.0 41.40158" fill-rule="evenodd"/><path stroke="#666666" stroke-width="3.0" stroke-linejoin="round" stroke-linecap="butt" d="m172.50847 252.9308l0.026138306 0.34614563c0.0849762 1.0739594 0.18263245 2.1150513 0.29200745 3.125824c0.4375 4.0431213 1.0625 7.601074 1.8125 10.835571c1.5 6.468994 3.5 11.644196 5.5 16.819397c4.0 10.350403 8.0 20.700806 8.0 41.40158" fill-rule="evenodd"/><path fill="#666666" stroke="#666666" stroke-width="3.0" stroke-linecap="butt" d="m172.50847 252.93079l3.4927673 3.2503662l-3.7045746 -9.142105l-3.0385742 9.384506z" fill-rule="evenodd"/><path fill="#000000" fill-opacity="0.0" d="m212.13911 242.65617c0 20.70079 4.0 31.051163 8.0 41.401566c4.0 10.350403 8.0 20.700806 8.0 41.40158" fill-rule="evenodd"/><path stroke="#666666" stroke-width="3.0" stroke-linejoin="round" stroke-linecap="butt" d="m212.13911 242.65617c0 20.70079 4.0 31.051163 8.0 41.401566c2.0 5.1752014 4.0 10.350403 5.5 16.819397c0.75 3.234497 1.375 6.79245 1.8125 10.835571c0.109375 1.0107727 0.20701599 2.05188 0.2919922 3.125824l0.026138306 0.3461609" fill-rule="evenodd"/><path fill="#666666" stroke="#666666" stroke-width="3.0" stroke-linecap="butt" d="m227.76976 315.1847l-3.4927826 -3.2503662l3.7045746 9.14212l3.0385742 -9.3845215z" fill-rule="evenodd"/><path fill="#000000" fill-opacity="0.0" d="m777.8172 441.27332l0 0c-28.735779 0.27612305 -55.177307 -15.61496 -68.10437 -40.930054c-12.927063 -25.315125 -10.072571 -55.614532 7.352173 -78.04108l0 0c-15.371216 -10.616821 -24.771118 -27.72461 -25.356323 -46.14859c-0.58514404 -18.42398 7.7130127 -36.000183 22.384583 -47.412155l0 0c-13.994873 -9.155884 -22.226807 -24.74585 -21.774658 -41.237778c0.45214844 -16.491928 9.524353 -31.551804 23.997375 -39.8356l0 0c-14.157715 -15.161163 -18.202637 -36.99035 -10.3845215 -56.041924c7.818115 -19.051575 26.095093 -31.90372 46.922363 -32.995235l0 0c6.4923706 -15.617722 19.567566 -27.675787 35.847412 -33.058777c16.279785 -5.382986 34.167236 -3.5628357 49.04071 4.990183l0 0c23.0531 -13.312099 51.600647 -13.553604 74.989136 -0.63438416c23.388489 12.91922 38.104065 37.05819 38.655212 63.40869c23.076965 3.0481186 42.727295 18.136734 51.376892 39.450035c8.649597 21.313309 4.947815 45.523148 -9.678467 63.298004c26.646301 11.649719 44.1333 37.304764 44.90576 65.881195c0.77246094 28.576447 -15.307922 54.951416 -41.293884 67.72992c9.448486 20.787598 9.985107 44.391083 1.4887695 65.48596c-8.496277 21.094849 -25.309875 37.904205 -46.647827 46.63617l0 0c-0.099975586 20.032135 -12.86731 37.82852 -31.965698 44.556915c-19.098328 6.728363 -40.462097 0.9564209 -53.488525 -14.451233l0 0c-12.722961 16.30185 -34.74951 22.69284 -54.59369 15.840363c-19.844177 -6.8525085 -33.009155 -25.39569 -32.630005 -45.960022z" fill-rule="evenodd"/><path fill="#000000" fill-opacity="0.0" d="m866.0819 471.91833l0 0c6.0040283 -7.692871 9.450806 -17.012848 9.877686 -26.708527m75.57776 -3.3925781c0.020935059 -4.1896667 -0.517334 -8.365662 -1.6009521 -12.420288m46.758057 -99.69623c-4.788208 2.3545532 -9.821411 4.198822 -15.013977 5.501404m11.401855 -139.11765l0 0c-4.858032 -2.1239166 -9.928833 -3.7386322 -15.127869 -4.8171844m-26.56903 -97.926994c-24.56897 -3.2451935 -48.790833 7.6987305 -62.261475 28.13102m-51.38037 -90.90455c7.9370728 4.5642395 14.698303 10.867641 19.753479 18.415993m-104.64337 9.649033l0 0c3.4562988 -0.18113708 6.923401 -0.03328705 10.35321 0.4414978m-46.88983 88.59422l0 0c3.5316772 3.7819672 7.5981445 7.041321 12.072937 9.67659m-14.297485 71.39734l0 0c3.361145 2.198944 6.9855957 3.979248 10.789856 5.299881m-7.817932 88.26224l0 0c3.6870728 -4.745453 7.947815 -9.030212 12.688721 -12.760193m48.064026 131.72995l0 0c3.9605713 -0.03805542 7.9105835 -0.38449097 11.81311 -1.0360718" fill-rule="evenodd"/><path stroke="#000000" stroke-width="3.0" stroke-linejoin="round" stroke-linecap="butt" d="m777.8172 441.27332l0 0c-28.735779 0.27612305 -55.177307 -15.61496 -68.10437 -40.930054c-12.927063 -25.315125 -10.072571 -55.614532 7.352173 -78.04108l0 0c-15.371216 -10.616821 -24.771118 -27.72461 -25.356323 -46.14859c-0.58514404 -18.42398 7.7130127 -36.000183 22.384583 -47.412155l0 0c-13.994873 -9.155884 -22.226807 -24.74585 -21.774658 -41.237778c0.45214844 -16.491928 9.524353 -31.551804 23.997375 -39.8356l0 0c-14.157715 -15.161163 -18.202637 -36.99035 -10.3845215 -56.041924c7.818115 -19.051575 26.095093 -31.90372 46.922363 -32.995235l0 0c6.4923706 -15.617722 19.567566 -27.675787 35.847412 -33.058777c16.279785 -5.382986 34.167236 -3.5628357 49.04071 4.990183l0 0c23.0531 -13.312099 51.600647 -13.553604 74.989136 -0.63438416c23.388489 12.91922 38.104065 37.05819 38.655212 63.40869c23.076965 3.0481186 42.727295 18.136734 51.376892 39.450035c8.649597 21.313309 4.947815 45.523148 -9.678467 63.298004c26.646301 11.649719 44.1333 37.304764 44.90576 65.881195c0.77246094 28.576447 -15.307922 54.951416 -41.293884 67.72992c9.448486 20.787598 9.985107 44.391083 1.4887695 65.48596c-8.496277 21.094849 -25.309875 37.904205 -46.647827 46.63617l0 0c-0.099975586 20.032135 -12.86731 37.82852 -31.965698 44.556915c-19.098328 6.728363 -40.462097 0.9564209 -53.488525 -14.451233l0 0c-12.722961 16.30185 -34.74951 22.69284 -54.59369 15.840363c-19.844177 -6.8525085 -33.009155 -25.39569 -32.630005 -45.960022z" fill-rule="evenodd"/><path stroke="#000000" stroke-width="3.0" stroke-linejoin="round" stroke-linecap="butt" d="m866.0819 471.91833l0 0c6.0040283 -7.692871 9.450806 -17.012848 9.877686 -26.708527m75.57776 -3.3925781c0.020935059 -4.1896667 -0.517334 -8.365662 -1.6009521 -12.420288m46.758057 -99.69623c-4.788208 2.3545532 -9.821411 4.198822 -15.013977 5.501404m11.401855 -139.11765l0 0c-4.858032 -2.1239166 -9.928833 -3.7386322 -15.127869 -4.8171844m-26.56903 -97.926994c-24.56897 -3.2451935 -48.790833 7.6987305 -62.261475 28.13102m-51.38037 -90.90455c7.9370728 4.5642395 14.698303 10.867641 19.753479 18.415993m-104.64337 9.649033l0 0c3.4562988 -0.18113708 6.923401 -0.03328705 10.35321 0.4414978m-46.88983 88.59422l0 0c3.5316772 3.7819672 7.5981445 7.041321 12.072937 9.67659m-14.297485 71.39734l0 0c3.361145 2.198944 6.9855957 3.979248 10.789856 5.299881m-7.817932 88.26224l0 0c3.6870728 -4.745453 7.947815 -9.030212 12.688721 -12.760193m48.064026 131.72995l0 0c3.9605713 -0.03805542 7.9105835 -0.38449097 11.81311 -1.0360718" fill-rule="evenodd"/><path fill="#000000" fill-opacity="0.0" d="m746.83466 71.091866l132.40942 0l0 74.23621l-132.40942 0z" fill-rule="evenodd"/><path fill="#000000" d="m800.4222 88.77249q-1.046875 0 -1.9375 0.40625q-0.890625 0.40625 -1.59375 1.171875q-0.6875 0.75 -1.203125 1.828125q-0.515625 1.078125 -0.796875 2.4375q-0.296875 1.359375 -0.28125 2.4375q0.03125 1.0625 0.390625 1.796875q0.375 0.734375 1.109375 1.109375q0.734375 0.375 1.859375 0.375q1.046875 0 2.140625 -0.234375q1.09375 -0.234375 2.421875 -0.65625l-0.640625 3.046875q-0.609375 0.234375 -1.203125 0.40625q-0.59375 0.15625 -1.1875 0.25q-0.59375 0.109375 -1.21875 0.15625q-0.609375 0.0625 -1.296875 0.0625q-1.984375 0 -3.3125 -0.625q-1.3125 -0.640625 -2.015625 -1.78125q-0.703125 -1.15625 -0.828125 -2.765625q-0.109375 -1.625 0.3125 -3.609375q0.421875 -1.9375 1.296875 -3.5625q0.875 -1.625 2.140625 -2.796875q1.265625 -1.171875 2.890625 -1.8125q1.640625 -0.65625 3.59375 -0.65625q1.28125 0 2.5 0.328125q1.21875 0.3125 2.265625 0.875l-1.796875 2.953125q-0.875 -0.453125 -1.78125 -0.796875q-0.890625 -0.34375 -1.828125 -0.34375zm8.027344 -2.125q0.109375 -0.515625 0.328125 -0.84375q0.234375 -0.328125 0.546875 -0.53125q0.3125 -0.21875 0.671875 -0.296875q0.375 -0.078125 0.78125 -0.078125q0.390625 0 0.71875 0.078125q0.34375 0.078125 0.5625 0.296875q0.21875 0.203125 0.296875 0.53125q0.09375 0.328125 -0.015625 0.84375q-0.09375 0.484375 -0.328125 0.828125q-0.234375 0.34375 -0.546875 0.546875q-0.296875 0.203125 -0.671875 0.296875q-0.375 0.078125 -0.765625 0.078125q-0.40625 0 -0.734375 -0.078125q-0.328125 -0.09375 -0.5625 -0.296875q-0.21875 -0.203125 -0.296875 -0.546875q-0.078125 -0.34375 0.015625 -0.828125zm0.234375 16.484375l-3.578125 0l2.78125 -13.109375l3.578125 0l-2.78125 13.109375zm6.4960938 0l-1.84375 -13.109375l3.734375 0l0.59375 7.46875q0.0625 0.671875 0.046875 1.390625q0 0.71875 -0.09375 1.296875l0.0625 0q0.1875 -0.625 0.46875 -1.3125q0.296875 -0.703125 0.640625 -1.375l3.734375 -7.46875l3.75 0l-7.40625 13.109375l-3.6875 0zm13.53125 -16.484375q0.109375 -0.515625 0.328125 -0.84375q0.234375 -0.328125 0.546875 -0.53125q0.3125 -0.21875 0.671875 -0.296875q0.375 -0.078125 0.78125 -0.078125q0.390625 0 0.71875 0.078125q0.34375 0.078125 0.5625 0.296875q0.21875 0.203125 0.296875 0.53125q0.09375 0.328125 -0.015625 0.84375q-0.09375 0.484375 -0.328125 0.828125q-0.234375 0.34375 -0.546875 0.546875q-0.296875 0.203125 -0.671875 0.296875q-0.375 0.078125 -0.765625 0.078125q-0.40625 0 -0.734375 -0.078125q-0.328125 -0.09375 -0.5625 -0.296875q-0.21875 -0.203125 -0.296875 -0.546875q-0.078125 -0.34375 0.015625 -0.828125zm0.234375 16.484375l-3.578125 0l2.78125 -13.109375l3.578125 0l-2.78125 13.109375zm7.3242188 0l-3.578125 0l3.875 -18.234375l3.578125 0l-3.875 18.234375z" fill-rule="nonzero"/><path fill="#000000" d="m792.9222 132.13187l-3.625 0l3.0 -14.109375l-4.296875 0l0.640625 -3.03125l12.203125 0l-0.640625 3.03125l-4.28125 0l-3.0 14.109375zm9.984375 -16.484375q0.109375 -0.515625 0.328125 -0.84375q0.234375 -0.328125 0.546875 -0.53125q0.3125 -0.21875 0.671875 -0.296875q0.375 -0.078125 0.78125 -0.078125q0.390625 0 0.71875 0.078125q0.34375 0.078125 0.5625 0.296875q0.21875 0.203125 0.296875 0.53125q0.09375 0.328125 -0.015625 0.84375q-0.09375 0.484375 -0.328125 0.828125q-0.234375 0.34375 -0.546875 0.546875q-0.296875 0.203125 -0.671875 0.296875q-0.375 0.078125 -0.765625 0.078125q-0.40625 0 -0.734375 -0.078125q-0.328125 -0.09375 -0.5625 -0.296875q-0.21875 -0.203125 -0.296875 -0.546875q-0.078125 -0.34375 0.015625 -0.828125zm0.234375 16.484375l-3.578125 0l2.78125 -13.109375l3.578125 0l-2.78125 13.109375zm14.996094 0l-3.578125 0l1.625 -7.65625q0.296875 -1.421875 0.03125 -2.125q-0.265625 -0.703125 -1.15625 -0.703125q-0.6875 0 -1.203125 0.28125q-0.515625 0.28125 -0.90625 0.828125q-0.375 0.546875 -0.671875 1.359375q-0.28125 0.8125 -0.5 1.84375l-1.3125 6.171875l-3.578125 0l2.78125 -13.109375l2.734375 0l0.125 1.6875l0.1875 0q0.390625 -0.515625 0.859375 -0.875q0.484375 -0.359375 1.0 -0.59375q0.53125 -0.234375 1.078125 -0.34375q0.546875 -0.109375 1.09375 -0.109375q1.34375 0 2.1875 0.46875q0.84375 0.453125 1.125 1.453125l0.296875 0q0.390625 -0.515625 0.859375 -0.875q0.484375 -0.359375 1.015625 -0.59375q0.53125 -0.234375 1.078125 -0.34375q0.5625 -0.109375 1.109375 -0.109375q2.109375 0 2.921875 1.140625q0.828125 1.140625 0.296875 3.65625l-1.8125 8.546875l-3.578125 0l1.625 -7.65625q0.296875 -1.421875 0.03125 -2.125q-0.265625 -0.703125 -1.171875 -0.703125q-1.28125 0 -2.046875 1.015625q-0.75 1.0 -1.15625 2.890625l-1.390625 6.578125zm18.949219 -10.8125q-0.953125 0 -1.71875 0.671875q-0.765625 0.671875 -1.171875 2.09375l4.5625 0q0.125 -0.59375 0.078125 -1.09375q-0.03125 -0.5 -0.234375 -0.875q-0.203125 -0.375 -0.578125 -0.578125q-0.375 -0.21875 -0.9375 -0.21875zm-1.890625 11.046875q-1.40625 0 -2.5 -0.40625q-1.09375 -0.421875 -1.78125 -1.234375q-0.6875 -0.828125 -0.890625 -2.09375q-0.1875 -1.265625 0.171875 -2.953125q0.359375 -1.734375 1.0625 -3.015625q0.703125 -1.296875 1.671875 -2.15625q0.96875 -0.859375 2.15625 -1.28125q1.1875 -0.4375 2.53125 -0.4375q1.296875 0 2.25 0.390625q0.96875 0.390625 1.53125 1.15625q0.578125 0.75 0.734375 1.859375q0.15625 1.109375 -0.140625 2.546875l-0.375 1.734375l-7.984375 0q-0.140625 0.75 -0.0625 1.359375q0.09375 0.59375 0.390625 1.015625q0.3125 0.40625 0.8125 0.640625q0.515625 0.21875 1.234375 0.21875q0.59375 0 1.140625 -0.0625q0.5625 -0.078125 1.078125 -0.203125q0.53125 -0.125 1.0625 -0.3125q0.546875 -0.203125 1.109375 -0.453125l-0.59375 2.765625q-0.515625 0.234375 -1.03125 0.40625q-0.515625 0.171875 -1.0625 0.28125q-0.546875 0.125 -1.171875 0.171875q-0.609375 0.0625 -1.34375 0.0625z" fill-rule="nonzero"/><path fill="#efefef" d="m767.9029 183.659l0 0c0 -5.633133 4.5665283 -10.1996765 10.199646 -10.1996765l132.07312 0c2.7051392 0 5.2994385 1.0746002 7.2122803 2.9874115c1.9127808 1.9128113 2.9873657 4.507141 2.9873657 7.212265l0 40.797485c0 5.633133 -4.5665283 10.199692 -10.199646 10.199692l-132.07312 0l0 0c-5.6331177 0 -10.199646 -4.566559 -10.199646 -10.199692z" fill-rule="evenodd"/><path stroke="#000000" stroke-width="1.0" stroke-linejoin="round" stroke-linecap="butt" d="m767.9029 183.659l0 0c0 -5.633133 4.5665283 -10.1996765 10.199646 -10.1996765l132.07312 0c2.7051392 0 5.2994385 1.0746002 7.2122803 2.9874115c1.9127808 1.9128113 2.9873657 4.507141 2.9873657 7.212265l0 40.797485c0 5.633133 -4.5665283 10.199692 -10.199646 10.199692l-132.07312 0l0 0c-5.6331177 0 -10.199646 -4.566559 -10.199646 -10.199692z" fill-rule="evenodd"/><path fill="#000000" d="m788.9545 214.219q-1.171875 0 -2.15625 -0.5q-0.96875 -0.515625 -1.671875 -1.5q-0.6875 -1.0 -1.078125 -2.46875q-0.390625 -1.484375 -0.390625 -3.421875q0 -1.96875 0.390625 -3.453125q0.390625 -1.484375 1.109375 -2.484375q0.71875 -1.015625 1.71875 -1.515625q1.0 -0.515625 2.203125 -0.515625q0.734375 0 1.34375 0.171875q0.625 0.171875 1.109375 0.484375q0.5 0.3125 0.890625 0.71875q0.390625 0.390625 0.6875 0.875l0.140625 0q-0.09375 -0.53125 -0.15625 -1.078125q-0.0625 -0.46875 -0.109375 -0.984375q-0.046875 -0.53125 -0.046875 -0.984375l0 -4.90625l4.15625 0l0 21.28125l-3.171875 0l-0.8125 -1.984375l-0.171875 0q-0.296875 0.46875 -0.671875 0.890625q-0.359375 0.40625 -0.84375 0.71875q-0.484375 0.296875 -1.09375 0.46875q-0.609375 0.1875 -1.375 0.1875zm1.515625 -3.328125q0.734375 0 1.25 -0.25q0.53125 -0.265625 0.84375 -0.765625q0.328125 -0.515625 0.484375 -1.28125q0.15625 -0.765625 0.171875 -1.796875l0 -0.453125q0 -1.109375 -0.140625 -1.96875q-0.140625 -0.859375 -0.453125 -1.4375q-0.3125 -0.578125 -0.84375 -0.875q-0.53125 -0.3125 -1.34375 -0.3125q-1.3125 0 -1.921875 1.1875q-0.609375 1.1875 -0.609375 3.4375q0 2.25 0.609375 3.390625q0.625 1.125 1.953125 1.125zm19.88086 3.046875l-0.8125 -2.078125l-0.125 0q-0.4375 0.609375 -0.890625 1.0625q-0.453125 0.4375 -0.984375 0.734375q-0.53125 0.28125 -1.203125 0.421875q-0.65625 0.140625 -1.53125 0.140625q-0.9375 0 -1.734375 -0.296875q-0.78125 -0.296875 -1.375 -0.890625q-0.578125 -0.59375 -0.90625 -1.5q-0.328125 -0.921875 -0.328125 -2.15625q0 -2.4375 1.5625 -3.59375q1.5625 -1.15625 4.65625 -1.28125l2.4375 -0.078125l0 -1.15625q0 -0.9375 -0.546875 -1.390625q-0.546875 -0.453125 -1.53125 -0.453125q-0.984375 0 -1.921875 0.296875q-0.9375 0.28125 -1.875 0.765625l-1.359375 -2.765625q1.15625 -0.640625 2.546875 -1.0q1.390625 -0.375 2.921875 -0.375q2.859375 0 4.375 1.34375q1.53125 1.328125 1.53125 4.0625l0 10.1875l-2.90625 0zm-1.234375 -7.078125l-1.375 0.046875q-0.84375 0.03125 -1.421875 0.21875q-0.5625 0.1875 -0.921875 0.515625q-0.34375 0.328125 -0.5 0.765625q-0.15625 0.4375 -0.15625 0.984375q0 0.96875 0.46875 1.375q0.46875 0.390625 1.21875 0.390625q0.578125 0 1.0625 -0.1875q0.5 -0.203125 0.859375 -0.59375q0.359375 -0.390625 0.5625 -0.953125q0.203125 -0.578125 0.203125 -1.3125l0 -1.25zm14.640625 4.03125q0.625 0 1.171875 -0.140625q0.5625 -0.140625 1.125 -0.34375l0 3.109375q-0.578125 0.296875 -1.453125 0.5q-0.859375 0.203125 -1.890625 0.203125q-1.0 0 -1.859375 -0.234375q-0.859375 -0.234375 -1.5 -0.8125q-0.625 -0.59375 -0.984375 -1.5625q-0.359375 -0.984375 -0.359375 -2.453125l0 -7.375l-2.0 0l0 -1.765625l2.296875 -1.390625l1.203125 -3.234375l2.671875 0l0 3.265625l3.71875 0l0 3.125l-3.71875 0l0 7.375q0 0.890625 0.4375 1.3125q0.4375 0.421875 1.140625 0.421875zm11.578125 -9.5625q-1.109375 0 -1.84375 0.78125q-0.734375 0.78125 -0.84375 2.453125l5.3125 0q0 -0.703125 -0.171875 -1.28125q-0.15625 -0.59375 -0.484375 -1.015625q-0.328125 -0.4375 -0.828125 -0.6875q-0.484375 -0.25 -1.140625 -0.25zm0.53125 12.890625q-1.640625 0 -3.03125 -0.484375q-1.375 -0.484375 -2.375 -1.4375q-1.0 -0.96875 -1.5625 -2.4375q-0.546875 -1.46875 -0.546875 -3.453125q0 -2.015625 0.5 -3.515625q0.515625 -1.5 1.421875 -2.5q0.90625 -1.015625 2.1875 -1.515625q1.28125 -0.515625 2.84375 -0.515625q1.515625 0 2.734375 0.46875q1.234375 0.453125 2.078125 1.34375q0.859375 0.890625 1.3125 2.1875q0.46875 1.28125 0.46875 2.953125l0 2.015625l-9.328125 0q0.03125 0.875 0.28125 1.578125q0.25 0.703125 0.703125 1.203125q0.46875 0.484375 1.109375 0.75q0.65625 0.25 1.484375 0.25q0.703125 0 1.3125 -0.078125q0.625 -0.078125 1.21875 -0.21875q0.59375 -0.15625 1.15625 -0.375q0.578125 -0.234375 1.1875 -0.53125l0 3.21875q-0.546875 0.296875 -1.109375 0.5q-0.546875 0.1875 -1.171875 0.328125q-0.609375 0.140625 -1.328125 0.203125q-0.703125 0.0625 -1.546875 0.0625zm15.753906 -3.328125q0.625 0 1.171875 -0.140625q0.5625 -0.140625 1.125 -0.34375l0 3.109375q-0.578125 0.296875 -1.453125 0.5q-0.859375 0.203125 -1.890625 0.203125q-1.0 0 -1.859375 -0.234375q-0.859375 -0.234375 -1.5 -0.8125q-0.625 -0.59375 -0.984375 -1.5625q-0.359375 -0.984375 -0.359375 -2.453125l0 -7.375l-2.0 0l0 -1.765625l2.296875 -1.390625l1.203125 -3.234375l2.671875 0l0 3.265625l3.71875 0l0 3.125l-3.71875 0l0 7.375q0 0.890625 0.4375 1.3125q0.4375 0.421875 1.140625 0.421875zm5.21875 -16.1875q0 -0.59375 0.171875 -0.984375q0.171875 -0.390625 0.484375 -0.625q0.3125 -0.234375 0.71875 -0.328125q0.421875 -0.109375 0.890625 -0.109375q0.46875 0 0.875 0.109375q0.40625 0.09375 0.71875 0.328125q0.3125 0.234375 0.484375 0.625q0.1875 0.390625 0.1875 0.984375q0 0.578125 -0.1875 0.96875q-0.171875 0.390625 -0.484375 0.640625q-0.3125 0.234375 -0.71875 0.34375q-0.40625 0.09375 -0.875 0.09375q-0.46875 0 -0.890625 -0.09375q-0.40625 -0.109375 -0.71875 -0.34375q-0.3125 -0.25 -0.484375 -0.640625q-0.171875 -0.390625 -0.171875 -0.96875zm4.34375 19.234375l-4.171875 0l0 -15.28125l4.171875 0l0 15.28125zm17.498047 0l-4.171875 0l0 -8.921875q0 -1.65625 -0.5 -2.484375q-0.484375 -0.828125 -1.53125 -0.828125q-0.796875 0 -1.328125 0.328125q-0.515625 0.328125 -0.84375 0.96875q-0.3125 0.640625 -0.453125 1.59375q-0.125 0.9375 -0.125 2.15625l0 7.1875l-4.171875 0l0 -15.28125l3.1875 0l0.5625 1.953125l0.234375 0q0.328125 -0.59375 0.78125 -1.015625q0.453125 -0.421875 1.0 -0.6875q0.546875 -0.28125 1.15625 -0.40625q0.625 -0.140625 1.25 -0.140625q1.578125 0 2.671875 0.546875q1.109375 0.53125 1.6875 1.703125l0.34375 0q0.328125 -0.59375 0.796875 -1.015625q0.46875 -0.421875 1.03125 -0.6875q0.5625 -0.28125 1.171875 -0.40625q0.625 -0.140625 1.25 -0.140625q2.46875 0 3.71875 1.34375q1.25 1.328125 1.25 4.265625l0 9.96875l-4.1875 0l0 -8.921875q0 -1.65625 -0.5 -2.484375q-0.484375 -0.828125 -1.53125 -0.828125q-1.484375 0 -2.125 1.1875q-0.625 1.171875 -0.625 3.375l0 7.671875zm19.435547 -12.609375q-1.109375 0 -1.84375 0.78125q-0.734375 0.78125 -0.84375 2.453125l5.3125 0q0 -0.703125 -0.171875 -1.28125q-0.15625 -0.59375 -0.484375 -1.015625q-0.328125 -0.4375 -0.828125 -0.6875q-0.484375 -0.25 -1.140625 -0.25zm0.53125 12.890625q-1.640625 0 -3.03125 -0.484375q-1.375 -0.484375 -2.375 -1.4375q-1.0 -0.96875 -1.5625 -2.4375q-0.546875 -1.46875 -0.546875 -3.453125q0 -2.015625 0.5 -3.515625q0.515625 -1.5 1.421875 -2.5q0.90625 -1.015625 2.1875 -1.515625q1.28125 -0.515625 2.84375 -0.515625q1.515625 0 2.734375 0.46875q1.234375 0.453125 2.078125 1.34375q0.859375 0.890625 1.3125 2.1875q0.46875 1.28125 0.46875 2.953125l0 2.015625l-9.328125 0q0.03125 0.875 0.28125 1.578125q0.25 0.703125 0.703125 1.203125q0.46875 0.484375 1.109375 0.75q0.65625 0.25 1.484375 0.25q0.703125 0 1.3125 -0.078125q0.625 -0.078125 1.21875 -0.21875q0.59375 -0.15625 1.15625 -0.375q0.578125 -0.234375 1.1875 -0.53125l0 3.21875q-0.546875 0.296875 -1.109375 0.5q-0.546875 0.1875 -1.171875 0.328125q-0.609375 0.140625 -1.328125 0.203125q-0.703125 0.0625 -1.546875 0.0625z" fill-rule="nonzero"/><path fill="#efefef" d="m783.9029 343.659l0 0c0 -5.6331177 4.5665283 -10.1996765 10.199646 -10.1996765l132.07312 0c2.7051392 0 5.2994385 1.0746155 7.2122803 2.9874268c1.9127808 1.9128113 2.9873657 4.507141 2.9873657 7.2122498l0 40.797485c0 5.633148 -4.5665283 10.1996765 -10.199646 10.1996765l-132.07312 0l0 0c-5.6331177 0 -10.199646 -4.5665283 -10.199646 -10.1996765z" fill-rule="evenodd"/><path stroke="#000000" stroke-width="1.0" stroke-linejoin="round" stroke-linecap="butt" d="m783.9029 343.659l0 0c0 -5.6331177 4.5665283 -10.1996765 10.199646 -10.1996765l132.07312 0c2.7051392 0 5.2994385 1.0746155 7.2122803 2.9874268c1.9127808 1.9128113 2.9873657 4.507141 2.9873657 7.2122498l0 40.797485c0 5.633148 -4.5665283 10.1996765 -10.199646 10.1996765l-132.07312 0l0 0c-5.6331177 0 -10.199646 -4.5665283 -10.199646 -10.1996765z" fill-rule="evenodd"/><path fill="#000000" d="m826.4799 374.219q-0.765625 0 -1.359375 -0.171875q-0.59375 -0.171875 -1.0625 -0.4375q-0.453125 -0.28125 -0.8125 -0.625q-0.359375 -0.34375 -0.640625 -0.734375l-0.21875 0q0.046875 0.484375 0.109375 0.90625q0.046875 0.359375 0.078125 0.734375q0.03125 0.375 0.03125 0.578125l0 6.203125l-4.171875 0l0 -22.015625l3.390625 0l0.59375 1.984375l0.1875 0q0.28125 -0.46875 0.65625 -0.875q0.375 -0.421875 0.859375 -0.71875q0.484375 -0.3125 1.09375 -0.5q0.609375 -0.1875 1.375 -0.1875q1.1875 0 2.15625 0.515625q0.96875 0.5 1.65625 1.5q0.703125 1.0 1.078125 2.484375q0.390625 1.46875 0.390625 3.40625q0 1.953125 -0.40625 3.4375q-0.390625 1.484375 -1.109375 2.5q-0.703125 1.0 -1.703125 1.515625q-0.984375 0.5 -2.171875 0.5zm-1.3125 -12.515625q-0.6875 0 -1.171875 0.25q-0.484375 0.25 -0.796875 0.765625q-0.296875 0.5 -0.4375 1.28125q-0.125 0.765625 -0.15625 1.78125l0 0.453125q0 1.109375 0.125 1.96875q0.140625 0.859375 0.4375 1.453125q0.296875 0.578125 0.796875 0.875q0.5 0.296875 1.234375 0.296875q1.25 0 1.828125 -1.171875q0.578125 -1.1875 0.578125 -3.4375q0 -2.265625 -0.578125 -3.390625q-0.578125 -1.125 -1.859375 -1.125zm16.47461 -0.375q-1.109375 0 -1.84375 0.78125q-0.734375 0.78125 -0.84375 2.453125l5.3125 0q0 -0.703125 -0.171875 -1.28125q-0.15625 -0.59375 -0.484375 -1.015625q-0.328125 -0.4375 -0.828125 -0.6875q-0.484375 -0.25 -1.140625 -0.25zm0.53125 12.890625q-1.640625 0 -3.03125 -0.484375q-1.375 -0.484375 -2.375 -1.4375q-1.0 -0.96875 -1.5625 -2.4375q-0.546875 -1.46875 -0.546875 -3.453125q0 -2.015625 0.5 -3.515625q0.515625 -1.5 1.421875 -2.5q0.90625 -1.015625 2.1875 -1.515625q1.28125 -0.515625 2.84375 -0.515625q1.515625 0 2.734375 0.46875q1.234375 0.453125 2.078125 1.34375q0.859375 0.890625 1.3125 2.1875q0.46875 1.28125 0.46875 2.953125l0 2.015625l-9.328125 0q0.03125 0.875 0.28125 1.578125q0.25 0.703125 0.703125 1.203125q0.46875 0.484375 1.109375 0.75q0.65625 0.25 1.484375 0.25q0.703125 0 1.3125 -0.078125q0.625 -0.078125 1.21875 -0.21875q0.59375 -0.15625 1.15625 -0.375q0.578125 -0.234375 1.1875 -0.53125l0 3.21875q-0.546875 0.296875 -1.109375 0.5q-0.546875 0.1875 -1.171875 0.328125q-0.609375 0.140625 -1.328125 0.203125q-0.703125 0.0625 -1.546875 0.0625zm17.519531 -15.859375q0.171875 0 0.359375 0.015625q0.203125 0 0.390625 0.03125q0.1875 0.015625 0.34375 0.03125q0.15625 0.015625 0.234375 0.046875l0 3.90625q-0.109375 -0.015625 -0.296875 -0.046875q-0.1875 -0.03125 -0.40625 -0.046875q-0.21875 -0.015625 -0.421875 -0.015625q-0.203125 -0.015625 -0.34375 -0.015625q-0.796875 0 -1.484375 0.203125q-0.671875 0.203125 -1.15625 0.671875q-0.484375 0.453125 -0.75 1.203125q-0.265625 0.734375 -0.265625 1.8125l0 7.78125l-4.171875 0l0 -15.28125l3.15625 0l0.625 2.296875l0.203125 0q0.328125 -0.59375 0.703125 -1.0625q0.390625 -0.484375 0.859375 -0.8125q0.46875 -0.34375 1.0625 -0.53125q0.59375 -0.1875 1.359375 -0.1875zm4.013672 -3.65625q0 -0.59375 0.171875 -0.984375q0.171875 -0.390625 0.484375 -0.625q0.3125 -0.234375 0.71875 -0.328125q0.421875 -0.109375 0.890625 -0.109375q0.46875 0 0.875 0.109375q0.40625 0.09375 0.71875 0.328125q0.3125 0.234375 0.484375 0.625q0.1875 0.390625 0.1875 0.984375q0 0.578125 -0.1875 0.96875q-0.171875 0.390625 -0.484375 0.640625q-0.3125 0.234375 -0.71875 0.34375q-0.40625 0.09375 -0.875 0.09375q-0.46875 0 -0.890625 -0.09375q-0.40625 -0.109375 -0.71875 -0.34375q-0.3125 -0.25 -0.484375 -0.640625q-0.171875 -0.390625 -0.171875 -0.96875zm4.34375 19.234375l-4.171875 0l0 -15.28125l4.171875 0l0 15.28125zm7.841797 -7.671875q0 2.28125 0.640625 3.4375q0.65625 1.15625 2.09375 1.15625q1.4375 0 2.078125 -1.15625q0.640625 -1.171875 0.640625 -3.4375q0 -2.28125 -0.640625 -3.40625q-0.640625 -1.125 -2.09375 -1.125q-1.4375 0 -2.078125 1.125q-0.640625 1.125 -0.640625 3.40625zm9.71875 0q0 1.921875 -0.5 3.40625q-0.484375 1.46875 -1.390625 2.484375q-0.90625 1.0 -2.21875 1.53125q-1.296875 0.53125 -2.921875 0.53125q-1.515625 0 -2.796875 -0.53125q-1.265625 -0.53125 -2.1875 -1.53125q-0.921875 -1.015625 -1.453125 -2.484375q-0.515625 -1.484375 -0.515625 -3.40625q0 -1.90625 0.484375 -3.375q0.484375 -1.484375 1.390625 -2.484375q0.921875 -1.0 2.21875 -1.515625q1.296875 -0.53125 2.9375 -0.53125q1.515625 0 2.78125 0.53125q1.28125 0.515625 2.203125 1.515625q0.921875 1.0 1.4375 2.484375q0.53125 1.46875 0.53125 3.375zm8.087891 7.953125q-1.171875 0 -2.15625 -0.5q-0.96875 -0.515625 -1.671875 -1.5q-0.6875 -1.0 -1.078125 -2.46875q-0.390625 -1.484375 -0.390625 -3.421875q0 -1.96875 0.390625 -3.453125q0.390625 -1.484375 1.109375 -2.484375q0.71875 -1.015625 1.71875 -1.515625q1.0 -0.515625 2.203125 -0.515625q0.734375 0 1.34375 0.171875q0.625 0.171875 1.109375 0.484375q0.5 0.3125 0.890625 0.71875q0.390625 0.390625 0.6875 0.875l0.140625 0q-0.09375 -0.53125 -0.15625 -1.078125q-0.0625 -0.46875 -0.109375 -0.984375q-0.046875 -0.53125 -0.046875 -0.984375l0 -4.90625l4.15625 0l0 21.28125l-3.171875 0l-0.8125 -1.984375l-0.171875 0q-0.296875 0.46875 -0.671875 0.890625q-0.359375 0.40625 -0.84375 0.71875q-0.484375 0.296875 -1.09375 0.46875q-0.609375 0.1875 -1.375 0.1875zm1.515625 -3.328125q0.734375 0 1.25 -0.25q0.53125 -0.265625 0.84375 -0.765625q0.328125 -0.515625 0.484375 -1.28125q0.15625 -0.765625 0.171875 -1.796875l0 -0.453125q0 -1.109375 -0.140625 -1.96875q-0.140625 -0.859375 -0.453125 -1.4375q-0.3125 -0.578125 -0.84375 -0.875q-0.53125 -0.3125 -1.34375 -0.3125q-1.3125 0 -1.921875 1.1875q-0.609375 1.1875 -0.609375 3.4375q0 2.25 0.609375 3.390625q0.625 1.125 1.953125 1.125z" fill-rule="nonzero"/><path fill="#000000" fill-opacity="0.0" d="m828.1391 242.65617c0 20.70079 4.0 31.051163 8.0 41.401566c4.0 10.350403 8.0 20.700806 8.0 41.40158" fill-rule="evenodd"/><path stroke="#666666" stroke-width="3.0" stroke-linejoin="round" stroke-linecap="butt" d="m828.5084 252.9308l0.026184082 0.34614563c0.08496094 1.0739594 0.18255615 2.1150513 0.2919922 3.125824c0.4375 4.0431213 1.0625 7.601074 1.8125 10.835571c1.5 6.468994 3.5 11.644196 5.5 16.819397c4.0 10.350403 8.0 20.700806 8.0 41.40158" fill-rule="evenodd"/><path fill="#666666" stroke="#666666" stroke-width="3.0" stroke-linecap="butt" d="m828.5085 252.93079l3.4927368 3.2503662l-3.7045288 -9.142105l-3.0385742 9.384506z" fill-rule="evenodd"/><path fill="#000000" fill-opacity="0.0" d="m868.1391 242.65617c0 20.70079 4.0 31.051163 8.0 41.401566c4.0 10.350403 8.0 20.700806 8.0 41.40158" fill-rule="evenodd"/><path stroke="#666666" stroke-width="3.0" stroke-linejoin="round" stroke-linecap="butt" d="m868.1391 242.65617c0 20.70079 4.0 31.051163 8.0 41.401566c2.0 5.1752014 4.0 10.350403 5.5 16.819397c0.75 3.234497 1.375 6.79245 1.8125 10.835571c0.109436035 1.0107727 0.20703125 2.05188 0.2919922 3.125824l0.026184082 0.3461609" fill-rule="evenodd"/><path fill="#666666" stroke="#666666" stroke-width="3.0" stroke-linecap="butt" d="m883.7698 315.1847l-3.4927979 -3.2503662l3.7045898 9.14212l3.0385742 -9.3845215z" fill-rule="evenodd"/><path fill="#000000" fill-opacity="0.0" d="m268.38846 207.49081c39.516296 -13.207794 154.87521 -78.57831 237.09769 -79.24672c82.22247 -0.6684189 213.53088 62.696854 256.23706 75.23622" fill-rule="evenodd"/><path stroke="#000000" stroke-width="4.0" stroke-linejoin="round" stroke-linecap="butt" d="m290.65533 198.53618l1.3955383 -0.6112213c1.892395 -0.83299255 3.8422241 -1.6990662 5.846161 -2.594696c4.0078735 -1.791275 8.232178 -3.700714 12.646332 -5.6997833c17.656616 -7.996277 38.350586 -17.426697 60.37912 -26.465286c44.0571 -18.077148 93.45242 -34.586884 134.56366 -34.921097c41.111206 -0.33421326 94.49396 15.339996 142.9372 32.66519c24.221558 8.662598 47.208313 17.737915 66.808716 25.43132c4.9001465 1.9233551 9.588562 3.7603455 14.031799 5.48291c2.2216187 0.86128235 4.381897 1.6939545 6.4766846 2.494522c1.0474243 0.4002838 2.0784302 0.7925415 3.0925293 1.1763458l0.22772217 0.08570862" fill-rule="evenodd"/><path fill="#000000" stroke="#000000" stroke-width="4.0" stroke-linecap="butt" d="m288.19022 192.40636l-14.376434 12.902649l19.306671 -0.6430054z" fill-rule="evenodd"/><path fill="#000000" stroke="#000000" stroke-width="4.0" stroke-linecap="butt" d="m736.886 201.8188l19.315552 -0.26338196l-14.965881 -12.21405z" fill-rule="evenodd"/><path fill="#efefef" d="m432.53647 105.5699l9.952759 -39.811028l132.56693 0l9.952759 39.811028z" fill-rule="evenodd"/><path stroke="#000000" stroke-width="1.0" stroke-linejoin="round" stroke-linecap="butt" d="m432.53647 105.5699l9.952759 -39.811028l132.56693 0l9.952759 39.811028z" fill-rule="evenodd"/><path fill="#000000" d="m458.89966 92.46124q0.515625 0 0.984375 -0.109375q0.484375 -0.125 0.984375 -0.3125l0 2.671875q-0.515625 0.25 -1.265625 0.421875q-0.734375 0.171875 -1.609375 0.171875q-0.859375 0 -1.59375 -0.203125q-0.734375 -0.203125 -1.28125 -0.6875q-0.53125 -0.5 -0.84375 -1.34375q-0.3125 -0.84375 -0.3125 -2.109375l0 -6.3125l-1.71875 0l0 -1.515625l1.96875 -1.1875l1.03125 -2.765625l2.296875 0l0 2.78125l3.1875 0l0 2.6875l-3.1875 0l0 6.3125q0 0.765625 0.375 1.140625q0.375 0.359375 0.984375 0.359375zm4.453125 -13.875q0 -0.515625 0.15625 -0.84375q0.15625 -0.328125 0.421875 -0.53125q0.265625 -0.21875 0.609375 -0.296875q0.359375 -0.078125 0.765625 -0.078125q0.390625 0 0.734375 0.078125q0.359375 0.078125 0.625 0.296875q0.265625 0.203125 0.421875 0.53125q0.15625 0.328125 0.15625 0.84375q0 0.484375 -0.15625 0.828125q-0.15625 0.34375 -0.421875 0.546875q-0.265625 0.203125 -0.625 0.296875q-0.34375 0.078125 -0.734375 0.078125q-0.40625 0 -0.765625 -0.078125q-0.34375 -0.09375 -0.609375 -0.296875q-0.265625 -0.203125 -0.421875 -0.546875q-0.15625 -0.34375 -0.15625 -0.828125zm3.734375 16.484375l-3.578125 0l0 -13.109375l3.578125 0l0 13.109375zm14.996094 0l-3.578125 0l0 -7.65625q0 -1.421875 -0.421875 -2.125q-0.421875 -0.703125 -1.3125 -0.703125q-0.6875 0 -1.140625 0.28125q-0.453125 0.28125 -0.71875 0.828125q-0.265625 0.546875 -0.390625 1.359375q-0.109375 0.8125 -0.109375 1.84375l0 6.171875l-3.578125 0l0 -13.109375l2.734375 0l0.484375 1.6875l0.1875 0q0.28125 -0.515625 0.671875 -0.875q0.40625 -0.359375 0.875 -0.59375q0.46875 -0.234375 0.984375 -0.34375q0.53125 -0.109375 1.078125 -0.109375q1.34375 0 2.28125 0.46875q0.953125 0.453125 1.453125 1.453125l0.296875 0q0.28125 -0.515625 0.671875 -0.875q0.40625 -0.359375 0.875 -0.59375q0.484375 -0.234375 1.015625 -0.34375q0.53125 -0.109375 1.078125 -0.109375q2.109375 0 3.171875 1.140625q1.078125 1.140625 1.078125 3.65625l0 8.546875l-3.578125 0l0 -7.65625q0 -1.421875 -0.421875 -2.125q-0.421875 -0.703125 -1.328125 -0.703125q-1.28125 0 -1.828125 1.015625q-0.53125 1.0 -0.53125 2.890625l0 6.578125zm16.652344 -10.8125q-0.953125 0 -1.578125 0.671875q-0.625 0.671875 -0.71875 2.09375l4.5625 0q-0.015625 -0.59375 -0.15625 -1.09375q-0.140625 -0.5 -0.421875 -0.875q-0.28125 -0.375 -0.703125 -0.578125q-0.421875 -0.21875 -0.984375 -0.21875zm0.453125 11.046875q-1.40625 0 -2.59375 -0.40625q-1.171875 -0.421875 -2.03125 -1.234375q-0.859375 -0.828125 -1.328125 -2.09375q-0.46875 -1.265625 -0.46875 -2.953125q0 -1.734375 0.421875 -3.015625q0.4375 -1.296875 1.21875 -2.15625q0.78125 -0.859375 1.875 -1.28125q1.09375 -0.4375 2.4375 -0.4375q1.296875 0 2.34375 0.390625q1.046875 0.390625 1.78125 1.15625q0.734375 0.75 1.125 1.859375q0.390625 1.109375 0.390625 2.546875l0 1.734375l-7.984375 0q0.015625 0.75 0.234375 1.359375q0.21875 0.59375 0.609375 1.015625q0.390625 0.40625 0.9375 0.640625q0.5625 0.21875 1.28125 0.21875q0.59375 0 1.125 -0.0625q0.546875 -0.078125 1.046875 -0.203125q0.5 -0.125 0.984375 -0.3125q0.5 -0.203125 1.015625 -0.453125l0 2.765625q-0.46875 0.234375 -0.953125 0.40625q-0.46875 0.171875 -1.0 0.28125q-0.515625 0.125 -1.125 0.171875q-0.609375 0.0625 -1.34375 0.0625zm22.835938 -0.234375l-9.640625 0l0 -2.109375l5.359375 -8.265625l-4.984375 0l0 -2.734375l9.046875 0l0 2.328125l-5.1875 8.046875l5.40625 0l0 2.734375zm5.3125 -6.578125q0 1.953125 0.546875 2.953125q0.546875 0.984375 1.796875 0.984375q1.21875 0 1.765625 -0.984375q0.5625 -1.0 0.5625 -2.953125q0 -1.953125 -0.5625 -2.921875q-0.546875 -0.96875 -1.796875 -0.96875q-1.234375 0 -1.78125 0.96875q-0.53125 0.96875 -0.53125 2.921875zm8.3125 0q0 1.640625 -0.421875 2.90625q-0.40625 1.265625 -1.1875 2.140625q-0.78125 0.859375 -1.90625 1.3125q-1.109375 0.453125 -2.5 0.453125q-1.3125 0 -2.40625 -0.453125q-1.078125 -0.453125 -1.875 -1.3125q-0.78125 -0.875 -1.234375 -2.140625q-0.4375 -1.265625 -0.4375 -2.90625q0 -1.625 0.40625 -2.890625q0.421875 -1.265625 1.203125 -2.125q0.78125 -0.859375 1.890625 -1.296875q1.109375 -0.453125 2.515625 -0.453125q1.296875 0 2.390625 0.453125q1.09375 0.4375 1.875 1.296875q0.796875 0.859375 1.234375 2.125q0.453125 1.265625 0.453125 2.890625zm14.457031 6.578125l-3.578125 0l0 -7.65625q0 -1.421875 -0.4375 -2.125q-0.421875 -0.703125 -1.359375 -0.703125q-0.703125 0 -1.171875 0.28125q-0.46875 0.28125 -0.75 0.828125q-0.265625 0.546875 -0.390625 1.359375q-0.109375 0.8125 -0.109375 1.84375l0 6.171875l-3.578125 0l0 -13.109375l2.734375 0l0.484375 1.6875l0.1875 0q0.28125 -0.515625 0.6875 -0.875q0.40625 -0.359375 0.890625 -0.59375q0.484375 -0.234375 1.015625 -0.34375q0.546875 -0.109375 1.109375 -0.109375q0.953125 0 1.734375 0.28125q0.796875 0.265625 1.359375 0.859375q0.5625 0.578125 0.859375 1.484375q0.3125 0.90625 0.3125 2.171875l0 8.546875zm8.96875 -10.8125q-0.953125 0 -1.578125 0.671875q-0.625 0.671875 -0.71875 2.09375l4.5625 0q-0.015625 -0.59375 -0.15625 -1.09375q-0.140625 -0.5 -0.421875 -0.875q-0.28125 -0.375 -0.703125 -0.578125q-0.421875 -0.21875 -0.984375 -0.21875zm0.453125 11.046875q-1.40625 0 -2.59375 -0.40625q-1.171875 -0.421875 -2.03125 -1.234375q-0.859375 -0.828125 -1.328125 -2.09375q-0.46875 -1.265625 -0.46875 -2.953125q0 -1.734375 0.421875 -3.015625q0.4375 -1.296875 1.21875 -2.15625q0.78125 -0.859375 1.875 -1.28125q1.09375 -0.4375 2.4375 -0.4375q1.296875 0 2.34375 0.390625q1.046875 0.390625 1.78125 1.15625q0.734375 0.75 1.125 1.859375q0.390625 1.109375 0.390625 2.546875l0 1.734375l-7.984375 0q0.015625 0.75 0.234375 1.359375q0.21875 0.59375 0.609375 1.015625q0.390625 0.40625 0.9375 0.640625q0.5625 0.21875 1.28125 0.21875q0.59375 0 1.125 -0.0625q0.546875 -0.078125 1.046875 -0.203125q0.5 -0.125 0.984375 -0.3125q0.5 -0.203125 1.015625 -0.453125l0 2.765625q-0.46875 0.234375 -0.953125 0.40625q-0.46875 0.171875 -1.0 0.28125q-0.515625 0.125 -1.125 0.171875q-0.609375 0.0625 -1.34375 0.0625z" fill-rule="nonzero"/><path fill="#000000" fill-opacity="0.0" d="m509.78055 107.49116l-1.0078735 -1.921257" fill-rule="evenodd"/><path stroke="#000000" stroke-width="1.0" stroke-linejoin="round" stroke-linecap="butt" d="m509.78055 107.49116l-1.0078735 -1.921257" fill-rule="evenodd"/><path fill="#000000" fill-opacity="0.0" d="m508.77267 127.648636l0 -23.086609" fill-rule="evenodd"/><path stroke="#000000" stroke-width="1.0" stroke-linejoin="round" stroke-linecap="butt" d="m508.77267 127.648636l0 -23.086609" fill-rule="evenodd"/></g></svg>